ISO-10303-21;
HEADER;
FILE_DESCRIPTION(('Open CASCADE Model'),'2;1');
FILE_NAME('Open CASCADE Shape Model','2026-09-10T14:48:55',('Author'),(
    'Open CASCADE'),'Open CASCADE STEP processor 7.9','Open CASCADE 7.9'
  ,'Unknown');
FILE_SCHEMA(('AUTOMOTIVE_DESIGN { 1 0 10303 214 1 1 1 1 }'));
ENDSEC;
DATA;
#1 = APPLICATION_PROTOCOL_DEFINITION('international standard',
  'automotive_design',2000,#2);
#2 = APPLICATION_CONTEXT(
  'core data for automotive mechanical design processes');
#3 = SHAPE_DEFINITION_REPRESENTATION(#4,#10);
#4 = PRODUCT_DEFINITION_SHAPE('','',#5);
#5 = PRODUCT_DEFINITION('design','',#6,#9);
#6 = PRODUCT_DEFINITION_FORMATION('','',#7);
#7 = PRODUCT('Open CASCADE STEP translator 7.9 4',
  'Open CASCADE STEP translator 7.9 4','',(#8));
#8 = PRODUCT_CONTEXT('',#2,'mechanical');
#9 = PRODUCT_DEFINITION_CONTEXT('part definition',#2,'design');
#10 = ADVANCED_BREP_SHAPE_REPRESENTATION('',(#11,#15),#407);
#11 = AXIS2_PLACEMENT_3D('',#12,#13,#14);
#12 = CARTESIAN_POINT('',(0.,0.,0.));
#13 = DIRECTION('',(0.,0.,1.));
#14 = DIRECTION('',(1.,0.,-0.));
#15 = MANIFOLD_SOLID_BREP('',#16);
#16 = CLOSED_SHELL('',(#17,#301,#324,#375,#380));
#17 = ADVANCED_FACE('',(#18,#130),#33,.T.);
#18 = FACE_BOUND('',#19,.T.);
#19 = EDGE_LOOP('',(#20,#56,#82,#111));
#20 = ORIENTED_EDGE('',*,*,#21,.F.);
#21 = EDGE_CURVE('',#22,#24,#26,.T.);
#22 = VERTEX_POINT('',#23);
#23 = CARTESIAN_POINT('',(49.3,9.671732006213,12.5));
#24 = VERTEX_POINT('',#25);
#25 = CARTESIAN_POINT('',(49.3,-9.671732006213,12.5));
#26 = SURFACE_CURVE('',#27,(#32,#44),.PCURVE_S1.);
#27 = CIRCLE('',#28,9.7);
#28 = AXIS2_PLACEMENT_3D('',#29,#30,#31);
#29 = CARTESIAN_POINT('',(50.04,0.,12.5));
#30 = DIRECTION('',(0.,0.,1.));
#31 = DIRECTION('',(1.,0.,0.));
#32 = PCURVE('',#33,#38);
#33 = CYLINDRICAL_SURFACE('',#34,9.7);
#34 = AXIS2_PLACEMENT_3D('',#35,#36,#37);
#35 = CARTESIAN_POINT('',(50.04,0.,-12.5));
#36 = DIRECTION('',(0.,0.,1.));
#37 = DIRECTION('',(1.,0.,0.));
#38 = DEFINITIONAL_REPRESENTATION('',(#39),#43);
#39 = LINE('',#40,#41);
#40 = CARTESIAN_POINT('',(0.,25.));
#41 = VECTOR('',#42,1.);
#42 = DIRECTION('',(1.,0.));
#43 = ( GEOMETRIC_REPRESENTATION_CONTEXT(2) 
PARAMETRIC_REPRESENTATION_CONTEXT() REPRESENTATION_CONTEXT('2D SPACE',''
  ) );
#44 = PCURVE('',#45,#50);
#45 = PLANE('',#46);
#46 = AXIS2_PLACEMENT_3D('',#47,#48,#49);
#47 = CARTESIAN_POINT('',(50.04,0.,12.5));
#48 = DIRECTION('',(0.,0.,1.));
#49 = DIRECTION('',(1.,0.,0.));
#50 = DEFINITIONAL_REPRESENTATION('',(#51),#55);
#51 = CIRCLE('',#52,9.7);
#52 = AXIS2_PLACEMENT_2D('',#53,#54);
#53 = CARTESIAN_POINT('',(0.,0.));
#54 = DIRECTION('',(1.,0.));
#55 = ( GEOMETRIC_REPRESENTATION_CONTEXT(2) 
PARAMETRIC_REPRESENTATION_CONTEXT() REPRESENTATION_CONTEXT('2D SPACE',''
  ) );
#56 = ORIENTED_EDGE('',*,*,#57,.F.);
#57 = EDGE_CURVE('',#58,#22,#60,.T.);
#58 = VERTEX_POINT('',#59);
#59 = CARTESIAN_POINT('',(49.3,9.671732006213,-12.5));
#60 = SURFACE_CURVE('',#61,(#65,#71),.PCURVE_S1.);
#61 = LINE('',#62,#63);
#62 = CARTESIAN_POINT('',(49.3,9.671732006213,-12.5));
#63 = VECTOR('',#64,1.);
#64 = DIRECTION('',(0.,0.,1.));
#65 = PCURVE('',#33,#66);
#66 = DEFINITIONAL_REPRESENTATION('',(#67),#70);
#67 = B_SPLINE_CURVE_WITH_KNOTS('',1,(#68,#69),.UNSPECIFIED.,.F.,.F.,(2,
    2),(-5.999999999062E-07,25.0000006),.PIECEWISE_BEZIER_KNOTS.);
#68 = CARTESIAN_POINT('',(1.647159180553,-5.999999999062E-07));
#69 = CARTESIAN_POINT('',(1.647159180553,25.0000006));
#70 = ( GEOMETRIC_REPRESENTATION_CONTEXT(2) 
PARAMETRIC_REPRESENTATION_CONTEXT() REPRESENTATION_CONTEXT('2D SPACE',''
  ) );
#71 = PCURVE('',#72,#77);
#72 = PLANE('',#73);
#73 = AXIS2_PLACEMENT_3D('',#74,#75,#76);
#74 = CARTESIAN_POINT('',(49.3,-20.,-25.));
#75 = DIRECTION('',(1.,0.,0.));
#76 = DIRECTION('',(0.,0.,1.));
#77 = DEFINITIONAL_REPRESENTATION('',(#78),#81);
#78 = B_SPLINE_CURVE_WITH_KNOTS('',1,(#79,#80),.UNSPECIFIED.,.F.,.F.,(2,
    2),(-5.999999999062E-07,25.0000006),.PIECEWISE_BEZIER_KNOTS.);
#79 = CARTESIAN_POINT('',(12.4999994,-29.67173200621));
#80 = CARTESIAN_POINT('',(37.5000006,-29.67173200621));
#81 = ( GEOMETRIC_REPRESENTATION_CONTEXT(2) 
PARAMETRIC_REPRESENTATION_CONTEXT() REPRESENTATION_CONTEXT('2D SPACE',''
  ) );
#82 = ORIENTED_EDGE('',*,*,#83,.T.);
#83 = EDGE_CURVE('',#58,#84,#86,.T.);
#84 = VERTEX_POINT('',#85);
#85 = CARTESIAN_POINT('',(49.3,-9.671732006213,-12.5));
#86 = SURFACE_CURVE('',#87,(#92,#99),.PCURVE_S1.);
#87 = CIRCLE('',#88,9.7);
#88 = AXIS2_PLACEMENT_3D('',#89,#90,#91);
#89 = CARTESIAN_POINT('',(50.04,0.,-12.5));
#90 = DIRECTION('',(0.,0.,1.));
#91 = DIRECTION('',(1.,0.,0.));
#92 = PCURVE('',#33,#93);
#93 = DEFINITIONAL_REPRESENTATION('',(#94),#98);
#94 = LINE('',#95,#96);
#95 = CARTESIAN_POINT('',(0.,0.));
#96 = VECTOR('',#97,1.);
#97 = DIRECTION('',(1.,0.));
#98 = ( GEOMETRIC_REPRESENTATION_CONTEXT(2) 
PARAMETRIC_REPRESENTATION_CONTEXT() REPRESENTATION_CONTEXT('2D SPACE',''
  ) );
#99 = PCURVE('',#100,#105);
#100 = PLANE('',#101);
#101 = AXIS2_PLACEMENT_3D('',#102,#103,#104);
#102 = CARTESIAN_POINT('',(50.04,0.,-12.5));
#103 = DIRECTION('',(0.,0.,1.));
#104 = DIRECTION('',(1.,0.,0.));
#105 = DEFINITIONAL_REPRESENTATION('',(#106),#110);
#106 = CIRCLE('',#107,9.7);
#107 = AXIS2_PLACEMENT_2D('',#108,#109);
#108 = CARTESIAN_POINT('',(0.,0.));
#109 = DIRECTION('',(1.,0.));
#110 = ( GEOMETRIC_REPRESENTATION_CONTEXT(2) 
PARAMETRIC_REPRESENTATION_CONTEXT() REPRESENTATION_CONTEXT('2D SPACE',''
  ) );
#111 = ORIENTED_EDGE('',*,*,#112,.T.);
#112 = EDGE_CURVE('',#84,#24,#113,.T.);
#113 = SURFACE_CURVE('',#114,(#118,#124),.PCURVE_S1.);
#114 = LINE('',#115,#116);
#115 = CARTESIAN_POINT('',(49.3,-9.671732006213,-12.5));
#116 = VECTOR('',#117,1.);
#117 = DIRECTION('',(0.,0.,1.));
#118 = PCURVE('',#33,#119);
#119 = DEFINITIONAL_REPRESENTATION('',(#120),#123);
#120 = B_SPLINE_CURVE_WITH_KNOTS('',1,(#121,#122),.UNSPECIFIED.,.F.,.F.,
  (2,2),(-5.999999999062E-07,25.0000006),.PIECEWISE_BEZIER_KNOTS.);
#121 = CARTESIAN_POINT('',(4.636026126627,-5.999999999062E-07));
#122 = CARTESIAN_POINT('',(4.636026126627,25.0000006));
#123 = ( GEOMETRIC_REPRESENTATION_CONTEXT(2) 
PARAMETRIC_REPRESENTATION_CONTEXT() REPRESENTATION_CONTEXT('2D SPACE',''
  ) );
#124 = PCURVE('',#72,#125);
#125 = DEFINITIONAL_REPRESENTATION('',(#126),#129);
#126 = B_SPLINE_CURVE_WITH_KNOTS('',1,(#127,#128),.UNSPECIFIED.,.F.,.F.,
  (2,2),(-5.999999999062E-07,25.0000006),.PIECEWISE_BEZIER_KNOTS.);
#127 = CARTESIAN_POINT('',(12.4999994,-10.32826799378));
#128 = CARTESIAN_POINT('',(37.5000006,-10.32826799378));
#129 = ( GEOMETRIC_REPRESENTATION_CONTEXT(2) 
PARAMETRIC_REPRESENTATION_CONTEXT() REPRESENTATION_CONTEXT('2D SPACE',''
  ) );
#130 = FACE_BOUND('',#131,.T.);
#131 = EDGE_LOOP('',(#132));
#132 = ORIENTED_EDGE('',*,*,#133,.T.);
#133 = EDGE_CURVE('',#134,#134,#136,.T.);
#134 = VERTEX_POINT('',#135);
#135 = CARTESIAN_POINT('',(40.34,-4.041334437186E-16,-1.65));
#136 = SURFACE_CURVE('',#137,(#188,#242),.PCURVE_S1.);
#137 = B_SPLINE_CURVE_WITH_KNOTS('',7,(#138,#139,#140,#141,#142,#143,
    #144,#145,#146,#147,#148,#149,#150,#151,#152,#153,#154,#155,#156,
    #157,#158,#159,#160,#161,#162,#163,#164,#165,#166,#167,#168,#169,
    #170,#171,#172,#173,#174,#175,#176,#177,#178,#179,#180,#181,#182,
    #183,#184,#185,#186,#187),.UNSPECIFIED.,.T.,.F.,(8,6,6,6,6,6,6,6,8),
  (0.,0.123759319993,0.250003100864,0.376251300443,0.499993313381,
    0.623762511514,0.750018308316,0.876273910798,1.),.UNSPECIFIED.);
#138 = CARTESIAN_POINT('',(40.34,4.440892098501E-16,-1.65));
#139 = CARTESIAN_POINT('',(40.34,0.217415241925,-1.65));
#140 = CARTESIAN_POINT('',(40.345685505297,0.429536901029,
    -1.616577484907));
#141 = CARTESIAN_POINT('',(40.35655681988,0.630351250029,-1.55266002066)
  );
#142 = CARTESIAN_POINT('',(40.371216270105,0.814760134613,
    -1.462358631967));
#143 = CARTESIAN_POINT('',(40.387688088121,0.978778536875,
    -1.350930589354));
#144 = CARTESIAN_POINT('',(40.404136009865,1.119920833174,
    -1.224739836673));
#145 = CARTESIAN_POINT('',(40.434739887373,1.357809770314,
    -0.954907803636));
#146 = CARTESIAN_POINT('',(40.449219128174,1.456531538247,
    -0.807651033592));
#147 = CARTESIAN_POINT('',(40.461676921585,1.534490849676,
    -0.652789669453));
#148 = CARTESIAN_POINT('',(40.471420045884,1.592387269435,
    -0.492803166879));
#149 = CARTESIAN_POINT('',(40.478047952862,1.630782946438,
    -0.329623590539));
#150 = CARTESIAN_POINT('',(40.481365160233,1.65,-0.164859817326));
#151 = CARTESIAN_POINT('',(40.481365160233,1.65,0.16486558765));
#152 = CARTESIAN_POINT('',(40.478047727362,1.63078162621,0.329627960766)
  );
#153 = CARTESIAN_POINT('',(40.471419852623,1.592386187689,0.492803950582
    ));
#154 = CARTESIAN_POINT('',(40.461677029509,1.534491224831,0.65278796257)
  );
#155 = CARTESIAN_POINT('',(40.449219307965,1.456532847001,0.807649280783
    ));
#156 = CARTESIAN_POINT('',(40.434739940255,1.357810181371,0.954907337384
    ));
#157 = CARTESIAN_POINT('',(40.404138606833,1.11994101983,1.224716939406)
  );
#158 = CARTESIAN_POINT('',(40.387690300586,0.978800299132,1.350917556338
    ));
#159 = CARTESIAN_POINT('',(40.371215722642,0.814763505974,1.462365446414
    ));
#160 = CARTESIAN_POINT('',(40.356553624135,0.630324673725,1.552678856729
    ));
#161 = CARTESIAN_POINT('',(40.345683003547,0.429485743049,1.616592168423
    ));
#162 = CARTESIAN_POINT('',(40.34,0.217367487914,1.65));
#163 = CARTESIAN_POINT('',(40.34,-0.217415241925,1.65));
#164 = CARTESIAN_POINT('',(40.345685505297,-0.429536901028,
    1.616577484907));
#165 = CARTESIAN_POINT('',(40.35655681988,-0.630351250029,1.55266002066)
  );
#166 = CARTESIAN_POINT('',(40.371216270105,-0.814760134612,
    1.462358631967));
#167 = CARTESIAN_POINT('',(40.387688088121,-0.978778536875,
    1.350930589354));
#168 = CARTESIAN_POINT('',(40.404136009865,-1.119920833174,
    1.224739836673));
#169 = CARTESIAN_POINT('',(40.434740124775,-1.357811615676,
    0.954905710484));
#170 = CARTESIAN_POINT('',(40.449219535615,-1.456534275344,
    0.807646827335));
#171 = CARTESIAN_POINT('',(40.461677126658,-1.534491731103,
    0.652785970578));
#172 = CARTESIAN_POINT('',(40.47141983156,-1.592386076643,0.492803379526
    ));
#173 = CARTESIAN_POINT('',(40.478047715124,-1.630781555751,
    0.329628367265));
#174 = CARTESIAN_POINT('',(40.481365160233,-1.65,0.164865837613));
#175 = CARTESIAN_POINT('',(40.481365160233,-1.65,-0.164865583867));
#176 = CARTESIAN_POINT('',(40.478047727464,-1.630781627156,
    -0.329627970075));
#177 = CARTESIAN_POINT('',(40.471419852068,-1.592386183172,
    -0.492803943766));
#178 = CARTESIAN_POINT('',(40.461677030609,-1.534491233371,
    -0.652787959316));
#179 = CARTESIAN_POINT('',(40.449219306962,-1.456532839302,
    -0.807649288198));
#180 = CARTESIAN_POINT('',(40.434739940633,-1.35781018431,-0.95490733405
    ));
#181 = CARTESIAN_POINT('',(40.404141443724,-1.119963071445,
    -1.224691926759));
#182 = CARTESIAN_POINT('',(40.387691931078,-0.978817917761,
    -1.350910273199));
#183 = CARTESIAN_POINT('',(40.371213937296,-0.814755678254,
    -1.462379663499));
#184 = CARTESIAN_POINT('',(40.356549887591,-0.630286350977,
    -1.552700676996));
#185 = CARTESIAN_POINT('',(40.345680652155,-0.429430201349,
    -1.61660603003));
#186 = CARTESIAN_POINT('',(40.34,-0.217322389845,-1.65));
#187 = CARTESIAN_POINT('',(40.34,4.440892098501E-16,-1.65));
#188 = PCURVE('',#33,#189);
#189 = DEFINITIONAL_REPRESENTATION('',(#190),#241);
#190 = B_SPLINE_CURVE_WITH_KNOTS('',7,(#191,#192,#193,#194,#195,#196,
    #197,#198,#199,#200,#201,#202,#203,#204,#205,#206,#207,#208,#209,
    #210,#211,#212,#213,#214,#215,#216,#217,#218,#219,#220,#221,#222,
    #223,#224,#225,#226,#227,#228,#229,#230,#231,#232,#233,#234,#235,
    #236,#237,#238,#239,#240),.UNSPECIFIED.,.T.,.F.,(8,6,6,6,6,6,6,6,8),
  (0.,0.123759319993,0.250003100864,0.376251300443,0.499993313381,
    0.623762511514,0.750018308316,0.876273910798,1.),.UNSPECIFIED.);
#191 = CARTESIAN_POINT('',(3.14159265359,10.85));
#192 = CARTESIAN_POINT('',(3.119178711123,10.85));
#193 = CARTESIAN_POINT('',(3.097310478024,10.883422515093));
#194 = CARTESIAN_POINT('',(3.076589690828,10.94733997934));
#195 = CARTESIAN_POINT('',(3.057526983638,11.037641368033));
#196 = CARTESIAN_POINT('',(3.040536319352,11.149069410646));
#197 = CARTESIAN_POINT('',(3.025888159708,11.275260163327));
#198 = CARTESIAN_POINT('',(3.001161415494,11.545092196364));
#199 = CARTESIAN_POINT('',(2.990876638988,11.692348966408));
#200 = CARTESIAN_POINT('',(2.98273823687,11.847210330547));
#201 = CARTESIAN_POINT('',(2.976685667696,12.007196833122));
#202 = CARTESIAN_POINT('',(2.972668806538,12.170376409461));
#203 = CARTESIAN_POINT('',(2.970658367955,12.335140182674));
#204 = CARTESIAN_POINT('',(2.970658367955,12.66486558765));
#205 = CARTESIAN_POINT('',(2.972668944619,12.829627960766));
#206 = CARTESIAN_POINT('',(2.976685780955,12.992803950582));
#207 = CARTESIAN_POINT('',(2.982738196928,13.15278796257));
#208 = CARTESIAN_POINT('',(2.990876502835,13.307649280783));
#209 = CARTESIAN_POINT('',(3.001161372768,13.454907337384));
#210 = CARTESIAN_POINT('',(3.025886061458,13.724716939406));
#211 = CARTESIAN_POINT('',(3.040534064584,13.850917556338));
#212 = CARTESIAN_POINT('',(3.057526646305,13.962365446414));
#213 = CARTESIAN_POINT('',(3.076592443304,14.052678856729));
#214 = CARTESIAN_POINT('',(3.097315752126,14.116592168423));
#215 = CARTESIAN_POINT('',(3.119183634217,14.15));
#216 = CARTESIAN_POINT('',(3.164006596056,14.15));
#217 = CARTESIAN_POINT('',(3.185874829156,14.116577484907));
#218 = CARTESIAN_POINT('',(3.206595616351,14.05266002066));
#219 = CARTESIAN_POINT('',(3.225658323542,13.962358631967));
#220 = CARTESIAN_POINT('',(3.242648987827,13.850930589354));
#221 = CARTESIAN_POINT('',(3.257297147472,13.724739836673));
#222 = CARTESIAN_POINT('',(3.282024083497,13.454905710484));
#223 = CARTESIAN_POINT('',(3.292308953396,13.307646827335));
#224 = CARTESIAN_POINT('',(3.300447163389,13.152785970578));
#225 = CARTESIAN_POINT('',(3.306499514588,12.992803379526));
#226 = CARTESIAN_POINT('',(3.31051635518,12.829628367265));
#227 = CARTESIAN_POINT('',(3.312526939224,12.664865837613));
#228 = CARTESIAN_POINT('',(3.312526939224,12.335134416133));
#229 = CARTESIAN_POINT('',(3.310516362658,12.170372029925));
#230 = CARTESIAN_POINT('',(3.306499525756,12.007196056234));
#231 = CARTESIAN_POINT('',(3.300447111139,11.847212040684));
#232 = CARTESIAN_POINT('',(3.292308803545,11.692350711802));
#233 = CARTESIAN_POINT('',(3.282023934717,11.54509266595));
#234 = CARTESIAN_POINT('',(3.257301537819,11.275308073241));
#235 = CARTESIAN_POINT('',(3.242653065566,11.149089726801));
#236 = CARTESIAN_POINT('',(3.22565783835,11.037620336501));
#237 = CARTESIAN_POINT('',(3.206588900359,10.947299323004));
#238 = CARTESIAN_POINT('',(3.185863829491,10.88339396997));
#239 = CARTESIAN_POINT('',(3.163997023677,10.85));
#240 = CARTESIAN_POINT('',(3.14159265359,10.85));
#241 = ( GEOMETRIC_REPRESENTATION_CONTEXT(2) 
PARAMETRIC_REPRESENTATION_CONTEXT() REPRESENTATION_CONTEXT('2D SPACE',''
  ) );
#242 = PCURVE('',#243,#248);
#243 = CYLINDRICAL_SURFACE('',#244,1.65);
#244 = AXIS2_PLACEMENT_3D('',#245,#246,#247);
#245 = CARTESIAN_POINT('',(40.3,0.,0.));
#246 = DIRECTION('',(1.,0.,1.110223024625E-16));
#247 = DIRECTION('',(1.110223024625E-16,0.,-1.));
#248 = DEFINITIONAL_REPRESENTATION('',(#249),#300);
#249 = B_SPLINE_CURVE_WITH_KNOTS('',7,(#250,#251,#252,#253,#254,#255,
    #256,#257,#258,#259,#260,#261,#262,#263,#264,#265,#266,#267,#268,
    #269,#270,#271,#272,#273,#274,#275,#276,#277,#278,#279,#280,#281,
    #282,#283,#284,#285,#286,#287,#288,#289,#290,#291,#292,#293,#294,
    #295,#296,#297,#298,#299),.UNSPECIFIED.,.F.,.F.,(8,6,6,6,6,6,6,6,8),
  (0.,0.123759319993,0.250003100864,0.376251300443,0.499993313381,
    0.623762511514,0.750018308316,0.876273910798,1.),.UNSPECIFIED.);
#250 = CARTESIAN_POINT('',(0.,4.E-02));
#251 = CARTESIAN_POINT('',(0.131766813288,4.E-02));
#252 = CARTESIAN_POINT('',(0.260325302979,4.568550529678E-02));
#253 = CARTESIAN_POINT('',(0.385768042811,5.655681988015E-02));
#254 = CARTESIAN_POINT('',(0.507922299788,7.121627010449E-02));
#255 = CARTESIAN_POINT('',(0.62636925899,8.768808812077E-02));
#256 = CARTESIAN_POINT('',(0.740306396042,0.104136009865));
#257 = CARTESIAN_POINT('',(0.958320197061,0.134739887373));
#258 = CARTESIAN_POINT('',(1.064832298203,0.149219128174));
#259 = CARTESIAN_POINT('',(1.168658636994,0.161676921585));
#260 = CARTESIAN_POINT('',(1.270498166097,0.171420045884));
#261 = CARTESIAN_POINT('',(1.371024561172,0.178047952862));
#262 = CARTESIAN_POINT('',(1.470881285991,0.181365160233));
#263 = CARTESIAN_POINT('',(1.670714864765,0.181365160233));
#264 = CARTESIAN_POINT('',(1.770570730527,0.178047727362));
#265 = CARTESIAN_POINT('',(1.871095147215,0.171419852623));
#266 = CARTESIAN_POINT('',(1.972933044404,0.161677029509));
#267 = CARTESIAN_POINT('',(2.076759039642,0.149219307965));
#268 = CARTESIAN_POINT('',(2.183272079815,0.134739940255));
#269 = CARTESIAN_POINT('',(2.401267757446,0.104138606833));
#270 = CARTESIAN_POINT('',(2.515208751603,8.76903005862E-02));
#271 = CARTESIAN_POINT('',(2.633671022733,7.121572264237E-02));
#272 = CARTESIAN_POINT('',(2.755843147209,5.655362413461E-02));
#273 = CARTESIAN_POINT('',(2.881298361866,4.568300354744E-02));
#274 = CARTESIAN_POINT('',(3.009854782127,4.E-02));
#275 = CARTESIAN_POINT('',(3.273359466878,4.E-02));
#276 = CARTESIAN_POINT('',(3.401917956569,4.568550529678E-02));
#277 = CARTESIAN_POINT('',(3.527360696401,5.655681988014E-02));
#278 = CARTESIAN_POINT('',(3.649514953378,7.12162701045E-02));
#279 = CARTESIAN_POINT('',(3.76796191258,8.768808812076E-02));
#280 = CARTESIAN_POINT('',(3.881899049632,0.104136009865));
#281 = CARTESIAN_POINT('',(4.099914541837,0.134740124775));
#282 = CARTESIAN_POINT('',(4.206427955921,0.149219535615));
#283 = CARTESIAN_POINT('',(4.31025344743,0.161677126658));
#284 = CARTESIAN_POINT('',(4.412090507058,0.17141983156));
#285 = CARTESIAN_POINT('',(4.512614325294,0.178047715124));
#286 = CARTESIAN_POINT('',(4.612470290922,0.181365160233));
#287 = CARTESIAN_POINT('',(4.812307516062,0.181365160233));
#288 = CARTESIAN_POINT('',(4.912163389472,0.178047727464));
#289 = CARTESIAN_POINT('',(5.012687797797,0.171419852068));
#290 = CARTESIAN_POINT('',(5.114525694081,0.161677030609));
#291 = CARTESIAN_POINT('',(5.218351699442,0.149219306962));
#292 = CARTESIAN_POINT('',(5.324864730711,0.134739940633));
#293 = CARTESIAN_POINT('',(5.542840201788,0.104141443724));
#294 = CARTESIAN_POINT('',(5.65679104068,8.769193107805E-02));
#295 = CARTESIAN_POINT('',(5.775272088104,7.121393729614E-02));
#296 = CARTESIAN_POINT('',(5.897461324943,5.65498875914E-02));
#297 = CARTESIAN_POINT('',(6.022924682152,4.568065215512E-02));
#298 = CARTESIAN_POINT('',(6.15147476788,4.E-02));
#299 = CARTESIAN_POINT('',(6.28318530718,4.E-02));
#300 = ( GEOMETRIC_REPRESENTATION_CONTEXT(2) 
PARAMETRIC_REPRESENTATION_CONTEXT() REPRESENTATION_CONTEXT('2D SPACE',''
  ) );
#301 = ADVANCED_FACE('',(#302),#45,.T.);
#302 = FACE_BOUND('',#303,.T.);
#303 = EDGE_LOOP('',(#304,#323));
#304 = ORIENTED_EDGE('',*,*,#305,.T.);
#305 = EDGE_CURVE('',#24,#22,#306,.T.);
#306 = SURFACE_CURVE('',#307,(#311,#317),.PCURVE_S1.);
#307 = LINE('',#308,#309);
#308 = CARTESIAN_POINT('',(49.3,-10.,12.5));
#309 = VECTOR('',#310,1.);
#310 = DIRECTION('',(0.,1.,0.));
#311 = PCURVE('',#45,#312);
#312 = DEFINITIONAL_REPRESENTATION('',(#313),#316);
#313 = B_SPLINE_CURVE_WITH_KNOTS('',1,(#314,#315),.UNSPECIFIED.,.F.,.F.,
  (2,2),(0.3,19.7),.PIECEWISE_BEZIER_KNOTS.);
#314 = CARTESIAN_POINT('',(-0.74,-9.7));
#315 = CARTESIAN_POINT('',(-0.74,9.7));
#316 = ( GEOMETRIC_REPRESENTATION_CONTEXT(2) 
PARAMETRIC_REPRESENTATION_CONTEXT() REPRESENTATION_CONTEXT('2D SPACE',''
  ) );
#317 = PCURVE('',#72,#318);
#318 = DEFINITIONAL_REPRESENTATION('',(#319),#322);
#319 = B_SPLINE_CURVE_WITH_KNOTS('',1,(#320,#321),.UNSPECIFIED.,.F.,.F.,
  (2,2),(0.3,19.7),.PIECEWISE_BEZIER_KNOTS.);
#320 = CARTESIAN_POINT('',(37.5,-10.3));
#321 = CARTESIAN_POINT('',(37.5,-29.7));
#322 = ( GEOMETRIC_REPRESENTATION_CONTEXT(2) 
PARAMETRIC_REPRESENTATION_CONTEXT() REPRESENTATION_CONTEXT('2D SPACE',''
  ) );
#323 = ORIENTED_EDGE('',*,*,#21,.T.);
#324 = ADVANCED_FACE('',(#325,#349),#72,.T.);
#325 = FACE_BOUND('',#326,.T.);
#326 = EDGE_LOOP('',(#327,#328,#347,#348));
#327 = ORIENTED_EDGE('',*,*,#112,.F.);
#328 = ORIENTED_EDGE('',*,*,#329,.T.);
#329 = EDGE_CURVE('',#84,#58,#330,.T.);
#330 = SURFACE_CURVE('',#331,(#335,#341),.PCURVE_S1.);
#331 = LINE('',#332,#333);
#332 = CARTESIAN_POINT('',(49.3,-10.,-12.5));
#333 = VECTOR('',#334,1.);
#334 = DIRECTION('',(0.,1.,0.));
#335 = PCURVE('',#72,#336);
#336 = DEFINITIONAL_REPRESENTATION('',(#337),#340);
#337 = B_SPLINE_CURVE_WITH_KNOTS('',1,(#338,#339),.UNSPECIFIED.,.F.,.F.,
  (2,2),(0.3,19.7),.PIECEWISE_BEZIER_KNOTS.);
#338 = CARTESIAN_POINT('',(12.5,-10.3));
#339 = CARTESIAN_POINT('',(12.5,-29.7));
#340 = ( GEOMETRIC_REPRESENTATION_CONTEXT(2) 
PARAMETRIC_REPRESENTATION_CONTEXT() REPRESENTATION_CONTEXT('2D SPACE',''
  ) );
#341 = PCURVE('',#100,#342);
#342 = DEFINITIONAL_REPRESENTATION('',(#343),#346);
#343 = B_SPLINE_CURVE_WITH_KNOTS('',1,(#344,#345),.UNSPECIFIED.,.F.,.F.,
  (2,2),(0.3,19.7),.PIECEWISE_BEZIER_KNOTS.);
#344 = CARTESIAN_POINT('',(-0.74,-9.7));
#345 = CARTESIAN_POINT('',(-0.74,9.7));
#346 = ( GEOMETRIC_REPRESENTATION_CONTEXT(2) 
PARAMETRIC_REPRESENTATION_CONTEXT() REPRESENTATION_CONTEXT('2D SPACE',''
  ) );
#347 = ORIENTED_EDGE('',*,*,#57,.T.);
#348 = ORIENTED_EDGE('',*,*,#305,.F.);
#349 = FACE_BOUND('',#350,.T.);
#350 = EDGE_LOOP('',(#351));
#351 = ORIENTED_EDGE('',*,*,#352,.F.);
#352 = EDGE_CURVE('',#353,#353,#355,.T.);
#353 = VERTEX_POINT('',#354);
#354 = CARTESIAN_POINT('',(49.3,-4.041334437186E-16,-1.65));
#355 = SURFACE_CURVE('',#356,(#361,#368),.PCURVE_S1.);
#356 = CIRCLE('',#357,1.65);
#357 = AXIS2_PLACEMENT_3D('',#358,#359,#360);
#358 = CARTESIAN_POINT('',(49.3,0.,9.992007221626E-16));
#359 = DIRECTION('',(1.,0.,1.110223024625E-16));
#360 = DIRECTION('',(1.110223024625E-16,0.,-1.));
#361 = PCURVE('',#72,#362);
#362 = DEFINITIONAL_REPRESENTATION('',(#363),#367);
#363 = CIRCLE('',#364,1.65);
#364 = AXIS2_PLACEMENT_2D('',#365,#366);
#365 = CARTESIAN_POINT('',(25.,-20.));
#366 = DIRECTION('',(-1.,0.));
#367 = ( GEOMETRIC_REPRESENTATION_CONTEXT(2) 
PARAMETRIC_REPRESENTATION_CONTEXT() REPRESENTATION_CONTEXT('2D SPACE',''
  ) );
#368 = PCURVE('',#243,#369);
#369 = DEFINITIONAL_REPRESENTATION('',(#370),#374);
#370 = LINE('',#371,#372);
#371 = CARTESIAN_POINT('',(0.,9.));
#372 = VECTOR('',#373,1.);
#373 = DIRECTION('',(1.,0.));
#374 = ( GEOMETRIC_REPRESENTATION_CONTEXT(2) 
PARAMETRIC_REPRESENTATION_CONTEXT() REPRESENTATION_CONTEXT('2D SPACE',''
  ) );
#375 = ADVANCED_FACE('',(#376),#100,.F.);
#376 = FACE_BOUND('',#377,.F.);
#377 = EDGE_LOOP('',(#378,#379));
#378 = ORIENTED_EDGE('',*,*,#329,.T.);
#379 = ORIENTED_EDGE('',*,*,#83,.T.);
#380 = ADVANCED_FACE('',(#381),#243,.F.);
#381 = FACE_BOUND('',#382,.F.);
#382 = EDGE_LOOP('',(#383,#384,#405,#406));
#383 = ORIENTED_EDGE('',*,*,#352,.F.);
#384 = ORIENTED_EDGE('',*,*,#385,.F.);
#385 = EDGE_CURVE('',#134,#353,#386,.T.);
#386 = SEAM_CURVE('',#387,(#391,#398),.PCURVE_S1.);
#387 = LINE('',#388,#389);
#388 = CARTESIAN_POINT('',(40.3,-4.041334437186E-16,-1.65));
#389 = VECTOR('',#390,1.);
#390 = DIRECTION('',(1.,0.,1.110223024625E-16));
#391 = PCURVE('',#243,#392);
#392 = DEFINITIONAL_REPRESENTATION('',(#393),#397);
#393 = LINE('',#394,#395);
#394 = CARTESIAN_POINT('',(6.28318530718,-0.));
#395 = VECTOR('',#396,1.);
#396 = DIRECTION('',(0.,1.));
#397 = ( GEOMETRIC_REPRESENTATION_CONTEXT(2) 
PARAMETRIC_REPRESENTATION_CONTEXT() REPRESENTATION_CONTEXT('2D SPACE',''
  ) );
#398 = PCURVE('',#243,#399);
#399 = DEFINITIONAL_REPRESENTATION('',(#400),#404);
#400 = LINE('',#401,#402);
#401 = CARTESIAN_POINT('',(0.,-0.));
#402 = VECTOR('',#403,1.);
#403 = DIRECTION('',(0.,1.));
#404 = ( GEOMETRIC_REPRESENTATION_CONTEXT(2) 
PARAMETRIC_REPRESENTATION_CONTEXT() REPRESENTATION_CONTEXT('2D SPACE',''
  ) );
#405 = ORIENTED_EDGE('',*,*,#133,.T.);
#406 = ORIENTED_EDGE('',*,*,#385,.T.);
#407 = ( GEOMETRIC_REPRESENTATION_CONTEXT(3) 
GLOBAL_UNCERTAINTY_ASSIGNED_CONTEXT((#411)) GLOBAL_UNIT_ASSIGNED_CONTEXT
((#408,#409,#410)) REPRESENTATION_CONTEXT('Context #1',
  '3D Context with UNIT and UNCERTAINTY') );
#408 = ( LENGTH_UNIT() NAMED_UNIT(*) SI_UNIT(.MILLI.,.METRE.) );
#409 = ( NAMED_UNIT(*) PLANE_ANGLE_UNIT() SI_UNIT($,.RADIAN.) );
#410 = ( NAMED_UNIT(*) SI_UNIT($,.STERADIAN.) SOLID_ANGLE_UNIT() );
#411 = UNCERTAINTY_MEASURE_WITH_UNIT(LENGTH_MEASURE(1.E-07),#408,
  'distance_accuracy_value','confusion accuracy');
#412 = PRODUCT_RELATED_PRODUCT_CATEGORY('part',$,(#7));
ENDSEC;
END-ISO-10303-21;
