ISO-10303-21;
HEADER;
FILE_DESCRIPTION(('Open CASCADE Model'),'2;1');
FILE_NAME('Open CASCADE Shape Model','2026-08-31T19:02:39',('Author'),(
    'Open CASCADE'),'Open CASCADE STEP processor 7.9','Open CASCADE 7.9'
  ,'Unknown');
FILE_SCHEMA(('AUTOMOTIVE_DESIGN { 1 0 10303 214 1 1 1 1 }'));
ENDSEC;
DATA;
#1 = APPLICATION_PROTOCOL_DEFINITION('international standard',
  'automotive_design',2000,#2);
#2 = APPLICATION_CONTEXT(
  'core data for automotive mechanical design processes');
#3 = SHAPE_DEFINITION_REPRESENTATION(#4,#10);
#4 = PRODUCT_DEFINITION_SHAPE('','',#5);
#5 = PRODUCT_DEFINITION('design','',#6,#9);
#6 = PRODUCT_DEFINITION_FORMATION('','',#7);
#7 = PRODUCT('Open CASCADE STEP translator 7.9 3',
  'Open CASCADE STEP translator 7.9 3','',(#8));
#8 = PRODUCT_CONTEXT('',#2,'mechanical');
#9 = PRODUCT_DEFINITION_CONTEXT('part definition',#2,'design');
#10 = ADVANCED_BREP_SHAPE_REPRESENTATION('',(#11,#15),#631);
#11 = AXIS2_PLACEMENT_3D('',#12,#13,#14);
#12 = CARTESIAN_POINT('',(0.,0.,0.));
#13 = DIRECTION('',(0.,0.,1.));
#14 = DIRECTION('',(1.,0.,-0.));
#15 = MANIFOLD_SOLID_BREP('',#16);
#16 = CLOSED_SHELL('',(#17,#472,#495,#572,#577,#604));
#17 = ADVANCED_FACE('',(#18,#130,#301),#33,.T.);
#18 = FACE_BOUND('',#19,.T.);
#19 = EDGE_LOOP('',(#20,#56,#82,#111));
#20 = ORIENTED_EDGE('',*,*,#21,.F.);
#21 = EDGE_CURVE('',#22,#24,#26,.T.);
#22 = VERTEX_POINT('',#23);
#23 = CARTESIAN_POINT('',(49.3,9.671732006213,45.));
#24 = VERTEX_POINT('',#25);
#25 = CARTESIAN_POINT('',(49.3,-9.671732006213,45.));
#26 = SURFACE_CURVE('',#27,(#32,#44),.PCURVE_S1.);
#27 = CIRCLE('',#28,9.7);
#28 = AXIS2_PLACEMENT_3D('',#29,#30,#31);
#29 = CARTESIAN_POINT('',(50.04,0.,45.));
#30 = DIRECTION('',(0.,0.,1.));
#31 = DIRECTION('',(1.,0.,0.));
#32 = PCURVE('',#33,#38);
#33 = CYLINDRICAL_SURFACE('',#34,9.7);
#34 = AXIS2_PLACEMENT_3D('',#35,#36,#37);
#35 = CARTESIAN_POINT('',(50.04,0.,-45.));
#36 = DIRECTION('',(0.,0.,1.));
#37 = DIRECTION('',(1.,0.,0.));
#38 = DEFINITIONAL_REPRESENTATION('',(#39),#43);
#39 = LINE('',#40,#41);
#40 = CARTESIAN_POINT('',(0.,90.));
#41 = VECTOR('',#42,1.);
#42 = DIRECTION('',(1.,0.));
#43 = ( GEOMETRIC_REPRESENTATION_CONTEXT(2) 
PARAMETRIC_REPRESENTATION_CONTEXT() REPRESENTATION_CONTEXT('2D SPACE',''
  ) );
#44 = PCURVE('',#45,#50);
#45 = PLANE('',#46);
#46 = AXIS2_PLACEMENT_3D('',#47,#48,#49);
#47 = CARTESIAN_POINT('',(50.04,0.,45.));
#48 = DIRECTION('',(0.,0.,1.));
#49 = DIRECTION('',(1.,0.,0.));
#50 = DEFINITIONAL_REPRESENTATION('',(#51),#55);
#51 = CIRCLE('',#52,9.7);
#52 = AXIS2_PLACEMENT_2D('',#53,#54);
#53 = CARTESIAN_POINT('',(0.,0.));
#54 = DIRECTION('',(1.,0.));
#55 = ( GEOMETRIC_REPRESENTATION_CONTEXT(2) 
PARAMETRIC_REPRESENTATION_CONTEXT() REPRESENTATION_CONTEXT('2D SPACE',''
  ) );
#56 = ORIENTED_EDGE('',*,*,#57,.F.);
#57 = EDGE_CURVE('',#58,#22,#60,.T.);
#58 = VERTEX_POINT('',#59);
#59 = CARTESIAN_POINT('',(49.3,9.671732006213,-45.));
#60 = SURFACE_CURVE('',#61,(#65,#71),.PCURVE_S1.);
#61 = LINE('',#62,#63);
#62 = CARTESIAN_POINT('',(49.3,9.671732006213,-45.));
#63 = VECTOR('',#64,1.);
#64 = DIRECTION('',(0.,0.,1.));
#65 = PCURVE('',#33,#66);
#66 = DEFINITIONAL_REPRESENTATION('',(#67),#70);
#67 = B_SPLINE_CURVE_WITH_KNOTS('',1,(#68,#69),.UNSPECIFIED.,.F.,.F.,(2,
    2),(-5.999999999062E-07,90.0000006),.PIECEWISE_BEZIER_KNOTS.);
#68 = CARTESIAN_POINT('',(1.647159180553,-5.999999999062E-07));
#69 = CARTESIAN_POINT('',(1.647159180553,90.0000006));
#70 = ( GEOMETRIC_REPRESENTATION_CONTEXT(2) 
PARAMETRIC_REPRESENTATION_CONTEXT() REPRESENTATION_CONTEXT('2D SPACE',''
  ) );
#71 = PCURVE('',#72,#77);
#72 = PLANE('',#73);
#73 = AXIS2_PLACEMENT_3D('',#74,#75,#76);
#74 = CARTESIAN_POINT('',(49.3,-20.,-90.));
#75 = DIRECTION('',(1.,0.,0.));
#76 = DIRECTION('',(0.,0.,1.));
#77 = DEFINITIONAL_REPRESENTATION('',(#78),#81);
#78 = B_SPLINE_CURVE_WITH_KNOTS('',1,(#79,#80),.UNSPECIFIED.,.F.,.F.,(2,
    2),(-5.999999999062E-07,90.0000006),.PIECEWISE_BEZIER_KNOTS.);
#79 = CARTESIAN_POINT('',(44.9999994,-29.67173200621));
#80 = CARTESIAN_POINT('',(135.0000006,-29.67173200621));
#81 = ( GEOMETRIC_REPRESENTATION_CONTEXT(2) 
PARAMETRIC_REPRESENTATION_CONTEXT() REPRESENTATION_CONTEXT('2D SPACE',''
  ) );
#82 = ORIENTED_EDGE('',*,*,#83,.T.);
#83 = EDGE_CURVE('',#58,#84,#86,.T.);
#84 = VERTEX_POINT('',#85);
#85 = CARTESIAN_POINT('',(49.3,-9.671732006213,-45.));
#86 = SURFACE_CURVE('',#87,(#92,#99),.PCURVE_S1.);
#87 = CIRCLE('',#88,9.7);
#88 = AXIS2_PLACEMENT_3D('',#89,#90,#91);
#89 = CARTESIAN_POINT('',(50.04,0.,-45.));
#90 = DIRECTION('',(0.,0.,1.));
#91 = DIRECTION('',(1.,0.,0.));
#92 = PCURVE('',#33,#93);
#93 = DEFINITIONAL_REPRESENTATION('',(#94),#98);
#94 = LINE('',#95,#96);
#95 = CARTESIAN_POINT('',(0.,0.));
#96 = VECTOR('',#97,1.);
#97 = DIRECTION('',(1.,0.));
#98 = ( GEOMETRIC_REPRESENTATION_CONTEXT(2) 
PARAMETRIC_REPRESENTATION_CONTEXT() REPRESENTATION_CONTEXT('2D SPACE',''
  ) );
#99 = PCURVE('',#100,#105);
#100 = PLANE('',#101);
#101 = AXIS2_PLACEMENT_3D('',#102,#103,#104);
#102 = CARTESIAN_POINT('',(50.04,0.,-45.));
#103 = DIRECTION('',(0.,0.,1.));
#104 = DIRECTION('',(1.,0.,0.));
#105 = DEFINITIONAL_REPRESENTATION('',(#106),#110);
#106 = CIRCLE('',#107,9.7);
#107 = AXIS2_PLACEMENT_2D('',#108,#109);
#108 = CARTESIAN_POINT('',(0.,0.));
#109 = DIRECTION('',(1.,0.));
#110 = ( GEOMETRIC_REPRESENTATION_CONTEXT(2) 
PARAMETRIC_REPRESENTATION_CONTEXT() REPRESENTATION_CONTEXT('2D SPACE',''
  ) );
#111 = ORIENTED_EDGE('',*,*,#112,.T.);
#112 = EDGE_CURVE('',#84,#24,#113,.T.);
#113 = SURFACE_CURVE('',#114,(#118,#124),.PCURVE_S1.);
#114 = LINE('',#115,#116);
#115 = CARTESIAN_POINT('',(49.3,-9.671732006213,-45.));
#116 = VECTOR('',#117,1.);
#117 = DIRECTION('',(0.,0.,1.));
#118 = PCURVE('',#33,#119);
#119 = DEFINITIONAL_REPRESENTATION('',(#120),#123);
#120 = B_SPLINE_CURVE_WITH_KNOTS('',1,(#121,#122),.UNSPECIFIED.,.F.,.F.,
  (2,2),(-5.999999999062E-07,90.0000006),.PIECEWISE_BEZIER_KNOTS.);
#121 = CARTESIAN_POINT('',(4.636026126627,-5.999999999062E-07));
#122 = CARTESIAN_POINT('',(4.636026126627,90.0000006));
#123 = ( GEOMETRIC_REPRESENTATION_CONTEXT(2) 
PARAMETRIC_REPRESENTATION_CONTEXT() REPRESENTATION_CONTEXT('2D SPACE',''
  ) );
#124 = PCURVE('',#72,#125);
#125 = DEFINITIONAL_REPRESENTATION('',(#126),#129);
#126 = B_SPLINE_CURVE_WITH_KNOTS('',1,(#127,#128),.UNSPECIFIED.,.F.,.F.,
  (2,2),(-5.999999999062E-07,90.0000006),.PIECEWISE_BEZIER_KNOTS.);
#127 = CARTESIAN_POINT('',(44.9999994,-10.32826799378));
#128 = CARTESIAN_POINT('',(135.0000006,-10.32826799378));
#129 = ( GEOMETRIC_REPRESENTATION_CONTEXT(2) 
PARAMETRIC_REPRESENTATION_CONTEXT() REPRESENTATION_CONTEXT('2D SPACE',''
  ) );
#130 = FACE_BOUND('',#131,.T.);
#131 = EDGE_LOOP('',(#132));
#132 = ORIENTED_EDGE('',*,*,#133,.T.);
#133 = EDGE_CURVE('',#134,#134,#136,.T.);
#134 = VERTEX_POINT('',#135);
#135 = CARTESIAN_POINT('',(40.34,-4.041334437186E-16,-36.65));
#136 = SURFACE_CURVE('',#137,(#188,#242),.PCURVE_S1.);
#137 = B_SPLINE_CURVE_WITH_KNOTS('',7,(#138,#139,#140,#141,#142,#143,
    #144,#145,#146,#147,#148,#149,#150,#151,#152,#153,#154,#155,#156,
    #157,#158,#159,#160,#161,#162,#163,#164,#165,#166,#167,#168,#169,
    #170,#171,#172,#173,#174,#175,#176,#177,#178,#179,#180,#181,#182,
    #183,#184,#185,#186,#187),.UNSPECIFIED.,.T.,.F.,(8,6,6,6,6,6,6,6,8),
  (0.,0.123759324012,0.250003108982,0.376251309764,0.499993320853,
    0.623762517136,0.750018312052,0.876273912647,1.),.UNSPECIFIED.);
#138 = CARTESIAN_POINT('',(40.34,4.440892098501E-16,-36.65));
#139 = CARTESIAN_POINT('',(40.34,0.217415241925,-36.65));
#140 = CARTESIAN_POINT('',(40.345685505297,0.429536901029,-36.6165774849
    ));
#141 = CARTESIAN_POINT('',(40.35655681988,0.630351250029,-36.55266002066
    ));
#142 = CARTESIAN_POINT('',(40.371216270105,0.814760134613,
    -36.46235863196));
#143 = CARTESIAN_POINT('',(40.387688088121,0.978778536875,
    -36.35093058935));
#144 = CARTESIAN_POINT('',(40.404136009865,1.119920833174,
    -36.22473983667));
#145 = CARTESIAN_POINT('',(40.434739887373,1.357809770314,
    -35.95490780363));
#146 = CARTESIAN_POINT('',(40.449219128174,1.456531538247,
    -35.80765103359));
#147 = CARTESIAN_POINT('',(40.461676921585,1.534490849677,
    -35.65278966945));
#148 = CARTESIAN_POINT('',(40.471420045884,1.592387269435,
    -35.49280316688));
#149 = CARTESIAN_POINT('',(40.478047952862,1.630782946438,
    -35.32962359053));
#150 = CARTESIAN_POINT('',(40.481365160233,1.65,-35.16485981732));
#151 = CARTESIAN_POINT('',(40.481365160233,1.65,-34.83513441613));
#152 = CARTESIAN_POINT('',(40.478047727464,1.630781627156,
    -34.67037202992));
#153 = CARTESIAN_POINT('',(40.471419852069,1.592386183172,
    -34.50719605623));
#154 = CARTESIAN_POINT('',(40.461677030609,1.53449123337,-34.34721204068
    ));
#155 = CARTESIAN_POINT('',(40.449219306962,1.456532839303,-34.1923507118
    ));
#156 = CARTESIAN_POINT('',(40.434739940633,1.35781018431,-34.04509266595
    ));
#157 = CARTESIAN_POINT('',(40.404138606833,1.11994101983,-33.77528306059
    ));
#158 = CARTESIAN_POINT('',(40.387690300586,0.978800299132,
    -33.64908244366));
#159 = CARTESIAN_POINT('',(40.371215722642,0.814763505974,
    -33.53763455358));
#160 = CARTESIAN_POINT('',(40.356553624135,0.630324673724,
    -33.44732114327));
#161 = CARTESIAN_POINT('',(40.345683003547,0.429485743049,
    -33.38340783157));
#162 = CARTESIAN_POINT('',(40.34,0.217367487914,-33.35));
#163 = CARTESIAN_POINT('',(40.34,-0.217415241925,-33.35));
#164 = CARTESIAN_POINT('',(40.345685505297,-0.429536901029,
    -33.38342251509));
#165 = CARTESIAN_POINT('',(40.35655681988,-0.63035125003,-33.44733997934
    ));
#166 = CARTESIAN_POINT('',(40.371216270104,-0.814760134612,
    -33.53764136803));
#167 = CARTESIAN_POINT('',(40.387688088121,-0.978778536876,
    -33.64906941064));
#168 = CARTESIAN_POINT('',(40.404136009865,-1.119920833174,
    -33.77526016332));
#169 = CARTESIAN_POINT('',(40.434740124775,-1.357811615676,
    -34.04509428951));
#170 = CARTESIAN_POINT('',(40.449219535615,-1.456534275344,
    -34.19235317266));
#171 = CARTESIAN_POINT('',(40.461677126658,-1.534491731102,
    -34.34721402942));
#172 = CARTESIAN_POINT('',(40.47141983156,-1.592386076643,
    -34.50719662047));
#173 = CARTESIAN_POINT('',(40.478047715124,-1.630781555751,
    -34.67037163273));
#174 = CARTESIAN_POINT('',(40.481365160233,-1.65,-34.83513416238));
#175 = CARTESIAN_POINT('',(40.481365160233,-1.65,-35.16486558386));
#176 = CARTESIAN_POINT('',(40.478047727464,-1.630781627156,
    -35.32962797007));
#177 = CARTESIAN_POINT('',(40.471419852068,-1.592386183172,
    -35.49280394376));
#178 = CARTESIAN_POINT('',(40.461677030609,-1.534491233371,
    -35.65278795931));
#179 = CARTESIAN_POINT('',(40.449219306962,-1.456532839302,
    -35.80764928819));
#180 = CARTESIAN_POINT('',(40.434739940633,-1.35781018431,
    -35.95490733405));
#181 = CARTESIAN_POINT('',(40.404141443724,-1.119963071445,
    -36.22469192675));
#182 = CARTESIAN_POINT('',(40.387691931078,-0.978817917761,
    -36.35091027319));
#183 = CARTESIAN_POINT('',(40.371213937296,-0.814755678254,
    -36.46237966349));
#184 = CARTESIAN_POINT('',(40.356549887591,-0.630286350977,
    -36.55270067699));
#185 = CARTESIAN_POINT('',(40.345680652155,-0.429430201349,
    -36.61660603003));
#186 = CARTESIAN_POINT('',(40.34,-0.217322389845,-36.65));
#187 = CARTESIAN_POINT('',(40.34,4.440892098501E-16,-36.65));
#188 = PCURVE('',#33,#189);
#189 = DEFINITIONAL_REPRESENTATION('',(#190),#241);
#190 = B_SPLINE_CURVE_WITH_KNOTS('',7,(#191,#192,#193,#194,#195,#196,
    #197,#198,#199,#200,#201,#202,#203,#204,#205,#206,#207,#208,#209,
    #210,#211,#212,#213,#214,#215,#216,#217,#218,#219,#220,#221,#222,
    #223,#224,#225,#226,#227,#228,#229,#230,#231,#232,#233,#234,#235,
    #236,#237,#238,#239,#240),.UNSPECIFIED.,.T.,.F.,(8,6,6,6,6,6,6,6,8),
  (0.,0.123759324012,0.250003108982,0.376251309764,0.499993320853,
    0.623762517136,0.750018312052,0.876273912647,1.),.UNSPECIFIED.);
#191 = CARTESIAN_POINT('',(3.14159265359,8.35));
#192 = CARTESIAN_POINT('',(3.119178711123,8.35));
#193 = CARTESIAN_POINT('',(3.097310478024,8.383422515093));
#194 = CARTESIAN_POINT('',(3.076589690829,8.44733997934));
#195 = CARTESIAN_POINT('',(3.057526983638,8.537641368033));
#196 = CARTESIAN_POINT('',(3.040536319352,8.649069410646));
#197 = CARTESIAN_POINT('',(3.025888159708,8.775260163327));
#198 = CARTESIAN_POINT('',(3.001161415494,9.045092196364));
#199 = CARTESIAN_POINT('',(2.990876638988,9.192348966408));
#200 = CARTESIAN_POINT('',(2.98273823687,9.347210330548));
#201 = CARTESIAN_POINT('',(2.976685667696,9.507196833121));
#202 = CARTESIAN_POINT('',(2.972668806538,9.670376409461));
#203 = CARTESIAN_POINT('',(2.970658367955,9.835140182674));
#204 = CARTESIAN_POINT('',(2.970658367955,10.164865583867));
#205 = CARTESIAN_POINT('',(2.972668944521,10.329627970075));
#206 = CARTESIAN_POINT('',(2.976685781424,10.492803943766));
#207 = CARTESIAN_POINT('',(2.982738196041,10.652787959316));
#208 = CARTESIAN_POINT('',(2.990876503635,10.807649288198));
#209 = CARTESIAN_POINT('',(3.001161372463,10.95490733405));
#210 = CARTESIAN_POINT('',(3.025886061458,11.224716939406));
#211 = CARTESIAN_POINT('',(3.040534064584,11.350917556338));
#212 = CARTESIAN_POINT('',(3.057526646305,11.462365446414));
#213 = CARTESIAN_POINT('',(3.076592443304,11.55267885673));
#214 = CARTESIAN_POINT('',(3.097315752126,11.616592168423));
#215 = CARTESIAN_POINT('',(3.119183634217,11.65));
#216 = CARTESIAN_POINT('',(3.164006596056,11.65));
#217 = CARTESIAN_POINT('',(3.185874829156,11.616577484907));
#218 = CARTESIAN_POINT('',(3.206595616351,11.552660020659));
#219 = CARTESIAN_POINT('',(3.225658323542,11.462358631967));
#220 = CARTESIAN_POINT('',(3.242648987827,11.350930589354));
#221 = CARTESIAN_POINT('',(3.257297147472,11.224739836674));
#222 = CARTESIAN_POINT('',(3.282024083497,10.954905710484));
#223 = CARTESIAN_POINT('',(3.292308953396,10.807646827335));
#224 = CARTESIAN_POINT('',(3.300447163389,10.652785970579));
#225 = CARTESIAN_POINT('',(3.306499514588,10.492803379526));
#226 = CARTESIAN_POINT('',(3.31051635518,10.329628367266));
#227 = CARTESIAN_POINT('',(3.312526939224,10.164865837613));
#228 = CARTESIAN_POINT('',(3.312526939224,9.835134416133));
#229 = CARTESIAN_POINT('',(3.310516362658,9.670372029925));
#230 = CARTESIAN_POINT('',(3.306499525756,9.507196056234));
#231 = CARTESIAN_POINT('',(3.300447111139,9.347212040684));
#232 = CARTESIAN_POINT('',(3.292308803545,9.192350711802));
#233 = CARTESIAN_POINT('',(3.282023934717,9.04509266595));
#234 = CARTESIAN_POINT('',(3.257301537819,8.775308073241));
#235 = CARTESIAN_POINT('',(3.242653065566,8.649089726801));
#236 = CARTESIAN_POINT('',(3.22565783835,8.537620336501));
#237 = CARTESIAN_POINT('',(3.206588900359,8.447299323004));
#238 = CARTESIAN_POINT('',(3.185863829491,8.38339396997));
#239 = CARTESIAN_POINT('',(3.163997023677,8.35));
#240 = CARTESIAN_POINT('',(3.14159265359,8.35));
#241 = ( GEOMETRIC_REPRESENTATION_CONTEXT(2) 
PARAMETRIC_REPRESENTATION_CONTEXT() REPRESENTATION_CONTEXT('2D SPACE',''
  ) );
#242 = PCURVE('',#243,#248);
#243 = CYLINDRICAL_SURFACE('',#244,1.65);
#244 = AXIS2_PLACEMENT_3D('',#245,#246,#247);
#245 = CARTESIAN_POINT('',(40.3,0.,-35.));
#246 = DIRECTION('',(1.,0.,1.110223024625E-16));
#247 = DIRECTION('',(1.110223024625E-16,0.,-1.));
#248 = DEFINITIONAL_REPRESENTATION('',(#249),#300);
#249 = B_SPLINE_CURVE_WITH_KNOTS('',7,(#250,#251,#252,#253,#254,#255,
    #256,#257,#258,#259,#260,#261,#262,#263,#264,#265,#266,#267,#268,
    #269,#270,#271,#272,#273,#274,#275,#276,#277,#278,#279,#280,#281,
    #282,#283,#284,#285,#286,#287,#288,#289,#290,#291,#292,#293,#294,
    #295,#296,#297,#298,#299),.UNSPECIFIED.,.F.,.F.,(8,6,6,6,6,6,6,6,8),
  (0.,0.123759324012,0.250003108982,0.376251309764,0.499993320853,
    0.623762517136,0.750018312052,0.876273912647,1.),.UNSPECIFIED.);
#250 = CARTESIAN_POINT('',(0.,4.E-02));
#251 = CARTESIAN_POINT('',(0.131766813288,4.E-02));
#252 = CARTESIAN_POINT('',(0.26032530298,4.568550529678E-02));
#253 = CARTESIAN_POINT('',(0.385768042811,5.655681988014E-02));
#254 = CARTESIAN_POINT('',(0.507922299788,7.121627010449E-02));
#255 = CARTESIAN_POINT('',(0.62636925899,8.768808812077E-02));
#256 = CARTESIAN_POINT('',(0.740306396042,0.104136009865));
#257 = CARTESIAN_POINT('',(0.958320197061,0.134739887373));
#258 = CARTESIAN_POINT('',(1.064832298203,0.149219128174));
#259 = CARTESIAN_POINT('',(1.168658636995,0.161676921585));
#260 = CARTESIAN_POINT('',(1.270498166096,0.171420045884));
#261 = CARTESIAN_POINT('',(1.371024561172,0.178047952862));
#262 = CARTESIAN_POINT('',(1.470881285991,0.181365160233));
#263 = CARTESIAN_POINT('',(1.670714862472,0.181365160233));
#264 = CARTESIAN_POINT('',(1.770570735882,0.178047727464));
#265 = CARTESIAN_POINT('',(1.871095144207,0.171419852068));
#266 = CARTESIAN_POINT('',(1.972933040492,0.161677030609));
#267 = CARTESIAN_POINT('',(2.076759045852,0.149219306962));
#268 = CARTESIAN_POINT('',(2.183272077121,0.134739940633));
#269 = CARTESIAN_POINT('',(2.401267757446,0.104138606833));
#270 = CARTESIAN_POINT('',(2.515208751604,8.769030058619E-02));
#271 = CARTESIAN_POINT('',(2.633671022733,7.121572264241E-02));
#272 = CARTESIAN_POINT('',(2.75584314721,5.655362413458E-02));
#273 = CARTESIAN_POINT('',(2.881298361866,4.568300354745E-02));
#274 = CARTESIAN_POINT('',(3.009854782127,4.E-02));
#275 = CARTESIAN_POINT('',(3.273359466878,4.E-02));
#276 = CARTESIAN_POINT('',(3.401917956569,4.568550529677E-02));
#277 = CARTESIAN_POINT('',(3.527360696401,5.655681988016E-02));
#278 = CARTESIAN_POINT('',(3.649514953378,7.121627010447E-02));
#279 = CARTESIAN_POINT('',(3.76796191258,8.768808812078E-02));
#280 = CARTESIAN_POINT('',(3.881899049632,0.104136009865));
#281 = CARTESIAN_POINT('',(4.099914541837,0.134740124775));
#282 = CARTESIAN_POINT('',(4.206427955921,0.149219535615));
#283 = CARTESIAN_POINT('',(4.310253447429,0.161677126658));
#284 = CARTESIAN_POINT('',(4.412090507058,0.17141983156));
#285 = CARTESIAN_POINT('',(4.512614325294,0.178047715124));
#286 = CARTESIAN_POINT('',(4.612470290922,0.181365160233));
#287 = CARTESIAN_POINT('',(4.812307516062,0.181365160233));
#288 = CARTESIAN_POINT('',(4.912163389472,0.178047727464));
#289 = CARTESIAN_POINT('',(5.012687797797,0.171419852068));
#290 = CARTESIAN_POINT('',(5.114525694081,0.161677030609));
#291 = CARTESIAN_POINT('',(5.218351699442,0.149219306962));
#292 = CARTESIAN_POINT('',(5.324864730711,0.134739940633));
#293 = CARTESIAN_POINT('',(5.542840201788,0.104141443724));
#294 = CARTESIAN_POINT('',(5.65679104068,8.769193107805E-02));
#295 = CARTESIAN_POINT('',(5.775272088104,7.121393729615E-02));
#296 = CARTESIAN_POINT('',(5.897461324944,5.65498875914E-02));
#297 = CARTESIAN_POINT('',(6.022924682152,4.568065215512E-02));
#298 = CARTESIAN_POINT('',(6.15147476788,4.E-02));
#299 = CARTESIAN_POINT('',(6.28318530718,4.E-02));
#300 = ( GEOMETRIC_REPRESENTATION_CONTEXT(2) 
PARAMETRIC_REPRESENTATION_CONTEXT() REPRESENTATION_CONTEXT('2D SPACE',''
  ) );
#301 = FACE_BOUND('',#302,.T.);
#302 = EDGE_LOOP('',(#303));
#303 = ORIENTED_EDGE('',*,*,#304,.T.);
#304 = EDGE_CURVE('',#305,#305,#307,.T.);
#305 = VERTEX_POINT('',#306);
#306 = CARTESIAN_POINT('',(40.34,-4.041334437186E-16,33.35));
#307 = SURFACE_CURVE('',#308,(#359,#413),.PCURVE_S1.);
#308 = B_SPLINE_CURVE_WITH_KNOTS('',7,(#309,#310,#311,#312,#313,#314,
    #315,#316,#317,#318,#319,#320,#321,#322,#323,#324,#325,#326,#327,
    #328,#329,#330,#331,#332,#333,#334,#335,#336,#337,#338,#339,#340,
    #341,#342,#343,#344,#345,#346,#347,#348,#349,#350,#351,#352,#353,
    #354,#355,#356,#357,#358),.UNSPECIFIED.,.T.,.F.,(8,6,6,6,6,6,6,6,8),
  (0.,0.123759322927,0.250003106791,0.376251306467,0.499993316471,
    0.62376251167,0.750018305479,0.876273907865,1.),.UNSPECIFIED.);
#309 = CARTESIAN_POINT('',(40.34,4.440892098501E-16,33.35));
#310 = CARTESIAN_POINT('',(40.34,0.217415241925,33.35));
#311 = CARTESIAN_POINT('',(40.345685505297,0.429536901029,
    33.383422515093));
#312 = CARTESIAN_POINT('',(40.35655681988,0.630351250029,33.44733997934)
  );
#313 = CARTESIAN_POINT('',(40.371216270105,0.814760134613,
    33.537641368033));
#314 = CARTESIAN_POINT('',(40.387688088121,0.978778536875,
    33.649069410646));
#315 = CARTESIAN_POINT('',(40.404136009865,1.119920833174,
    33.775260163327));
#316 = CARTESIAN_POINT('',(40.434739887373,1.357809770314,
    34.045092196364));
#317 = CARTESIAN_POINT('',(40.449219128174,1.456531538247,
    34.192348966408));
#318 = CARTESIAN_POINT('',(40.461676921585,1.534490849677,
    34.347210330548));
#319 = CARTESIAN_POINT('',(40.471420045884,1.592387269435,
    34.507196833121));
#320 = CARTESIAN_POINT('',(40.478047952862,1.630782946438,
    34.670376409461));
#321 = CARTESIAN_POINT('',(40.481365160233,1.65,34.835140182674));
#322 = CARTESIAN_POINT('',(40.481365160233,1.65,35.164865583867));
#323 = CARTESIAN_POINT('',(40.478047727464,1.630781627156,
    35.329627970075));
#324 = CARTESIAN_POINT('',(40.471419852069,1.592386183172,
    35.492803943767));
#325 = CARTESIAN_POINT('',(40.461677030609,1.534491233371,
    35.652787959316));
#326 = CARTESIAN_POINT('',(40.449219306962,1.456532839302,
    35.807649288198));
#327 = CARTESIAN_POINT('',(40.434739940633,1.35781018431,35.95490733405)
  );
#328 = CARTESIAN_POINT('',(40.404138606833,1.11994101983,36.224716939406
    ));
#329 = CARTESIAN_POINT('',(40.387690300586,0.978800299131,
    36.350917556339));
#330 = CARTESIAN_POINT('',(40.371215722642,0.814763505974,
    36.462365446413));
#331 = CARTESIAN_POINT('',(40.356553624135,0.630324673724,36.55267885673
    ));
#332 = CARTESIAN_POINT('',(40.345683003547,0.429485743049,
    36.616592168422));
#333 = CARTESIAN_POINT('',(40.34,0.217367487914,36.65));
#334 = CARTESIAN_POINT('',(40.34,-0.217415241925,36.65));
#335 = CARTESIAN_POINT('',(40.345685505297,-0.429536901029,
    36.616577484907));
#336 = CARTESIAN_POINT('',(40.35655681988,-0.630351250029,
    36.552660020659));
#337 = CARTESIAN_POINT('',(40.371216270104,-0.814760134612,
    36.462358631967));
#338 = CARTESIAN_POINT('',(40.387688088121,-0.978778536876,
    36.350930589354));
#339 = CARTESIAN_POINT('',(40.404136009865,-1.119920833174,
    36.224739836674));
#340 = CARTESIAN_POINT('',(40.434740124775,-1.357811615676,
    35.954905710484));
#341 = CARTESIAN_POINT('',(40.449219535615,-1.456534275344,
    35.807646827336));
#342 = CARTESIAN_POINT('',(40.461677126658,-1.534491731103,
    35.652785970577));
#343 = CARTESIAN_POINT('',(40.47141983156,-1.592386076643,
    35.492803379527));
#344 = CARTESIAN_POINT('',(40.478047715124,-1.630781555752,
    35.329628367265));
#345 = CARTESIAN_POINT('',(40.481365160233,-1.65,35.164865837613));
#346 = CARTESIAN_POINT('',(40.481365160233,-1.65,34.83513441235));
#347 = CARTESIAN_POINT('',(40.478047727362,-1.630781626211,
    34.670372039234));
#348 = CARTESIAN_POINT('',(40.471419852623,-1.592386187689,
    34.507196049418));
#349 = CARTESIAN_POINT('',(40.461677029509,-1.534491224832,
    34.34721203743));
#350 = CARTESIAN_POINT('',(40.449219307965,-1.456532847001,
    34.192350719217));
#351 = CARTESIAN_POINT('',(40.434739940255,-1.357810181371,
    34.045092662616));
#352 = CARTESIAN_POINT('',(40.404141443724,-1.119963071445,
    33.775308073241));
#353 = CARTESIAN_POINT('',(40.387691931078,-0.978817917761,
    33.649089726801));
#354 = CARTESIAN_POINT('',(40.371213937296,-0.814755678254,
    33.537620336501));
#355 = CARTESIAN_POINT('',(40.356549887591,-0.630286350977,
    33.447299323004));
#356 = CARTESIAN_POINT('',(40.345680652155,-0.429430201349,
    33.38339396997));
#357 = CARTESIAN_POINT('',(40.34,-0.217322389845,33.35));
#358 = CARTESIAN_POINT('',(40.34,4.440892098501E-16,33.35));
#359 = PCURVE('',#33,#360);
#360 = DEFINITIONAL_REPRESENTATION('',(#361),#412);
#361 = B_SPLINE_CURVE_WITH_KNOTS('',7,(#362,#363,#364,#365,#366,#367,
    #368,#369,#370,#371,#372,#373,#374,#375,#376,#377,#378,#379,#380,
    #381,#382,#383,#384,#385,#386,#387,#388,#389,#390,#391,#392,#393,
    #394,#395,#396,#397,#398,#399,#400,#401,#402,#403,#404,#405,#406,
    #407,#408,#409,#410,#411),.UNSPECIFIED.,.T.,.F.,(8,6,6,6,6,6,6,6,8),
  (0.,0.123759322927,0.250003106791,0.376251306467,0.499993316471,
    0.62376251167,0.750018305479,0.876273907865,1.),.UNSPECIFIED.);
#362 = CARTESIAN_POINT('',(3.14159265359,78.35));
#363 = CARTESIAN_POINT('',(3.119178711123,78.35));
#364 = CARTESIAN_POINT('',(3.097310478024,78.383422515093));
#365 = CARTESIAN_POINT('',(3.076589690829,78.44733997934));
#366 = CARTESIAN_POINT('',(3.057526983638,78.537641368033));
#367 = CARTESIAN_POINT('',(3.040536319352,78.649069410646));
#368 = CARTESIAN_POINT('',(3.025888159708,78.775260163327));
#369 = CARTESIAN_POINT('',(3.001161415494,79.045092196364));
#370 = CARTESIAN_POINT('',(2.990876638988,79.192348966408));
#371 = CARTESIAN_POINT('',(2.98273823687,79.347210330548));
#372 = CARTESIAN_POINT('',(2.976685667696,79.507196833121));
#373 = CARTESIAN_POINT('',(2.972668806538,79.670376409461));
#374 = CARTESIAN_POINT('',(2.970658367955,79.835140182674));
#375 = CARTESIAN_POINT('',(2.970658367955,80.164865583867));
#376 = CARTESIAN_POINT('',(2.972668944521,80.329627970075));
#377 = CARTESIAN_POINT('',(2.976685781424,80.492803943767));
#378 = CARTESIAN_POINT('',(2.982738196041,80.652787959316));
#379 = CARTESIAN_POINT('',(2.990876503635,80.807649288198));
#380 = CARTESIAN_POINT('',(3.001161372463,80.95490733405));
#381 = CARTESIAN_POINT('',(3.025886061458,81.224716939406));
#382 = CARTESIAN_POINT('',(3.040534064584,81.350917556339));
#383 = CARTESIAN_POINT('',(3.057526646305,81.462365446413));
#384 = CARTESIAN_POINT('',(3.076592443304,81.55267885673));
#385 = CARTESIAN_POINT('',(3.097315752126,81.616592168422));
#386 = CARTESIAN_POINT('',(3.119183634217,81.65));
#387 = CARTESIAN_POINT('',(3.164006596056,81.65));
#388 = CARTESIAN_POINT('',(3.185874829156,81.616577484907));
#389 = CARTESIAN_POINT('',(3.206595616351,81.552660020659));
#390 = CARTESIAN_POINT('',(3.225658323542,81.462358631967));
#391 = CARTESIAN_POINT('',(3.242648987827,81.350930589354));
#392 = CARTESIAN_POINT('',(3.257297147472,81.224739836674));
#393 = CARTESIAN_POINT('',(3.282024083497,80.954905710484));
#394 = CARTESIAN_POINT('',(3.292308953396,80.807646827336));
#395 = CARTESIAN_POINT('',(3.300447163389,80.652785970577));
#396 = CARTESIAN_POINT('',(3.306499514588,80.492803379527));
#397 = CARTESIAN_POINT('',(3.31051635518,80.329628367265));
#398 = CARTESIAN_POINT('',(3.312526939224,80.164865837613));
#399 = CARTESIAN_POINT('',(3.312526939224,79.83513441235));
#400 = CARTESIAN_POINT('',(3.31051636256,79.670372039234));
#401 = CARTESIAN_POINT('',(3.306499526225,79.507196049418));
#402 = CARTESIAN_POINT('',(3.300447110251,79.34721203743));
#403 = CARTESIAN_POINT('',(3.292308804345,79.192350719217));
#404 = CARTESIAN_POINT('',(3.282023934411,79.045092662616));
#405 = CARTESIAN_POINT('',(3.257301537819,78.775308073241));
#406 = CARTESIAN_POINT('',(3.242653065566,78.649089726801));
#407 = CARTESIAN_POINT('',(3.22565783835,78.537620336501));
#408 = CARTESIAN_POINT('',(3.206588900359,78.447299323004));
#409 = CARTESIAN_POINT('',(3.185863829491,78.38339396997));
#410 = CARTESIAN_POINT('',(3.163997023677,78.35));
#411 = CARTESIAN_POINT('',(3.14159265359,78.35));
#412 = ( GEOMETRIC_REPRESENTATION_CONTEXT(2) 
PARAMETRIC_REPRESENTATION_CONTEXT() REPRESENTATION_CONTEXT('2D SPACE',''
  ) );
#413 = PCURVE('',#414,#419);
#414 = CYLINDRICAL_SURFACE('',#415,1.65);
#415 = AXIS2_PLACEMENT_3D('',#416,#417,#418);
#416 = CARTESIAN_POINT('',(40.3,0.,35.));
#417 = DIRECTION('',(1.,0.,1.110223024625E-16));
#418 = DIRECTION('',(1.110223024625E-16,0.,-1.));
#419 = DEFINITIONAL_REPRESENTATION('',(#420),#471);
#420 = B_SPLINE_CURVE_WITH_KNOTS('',7,(#421,#422,#423,#424,#425,#426,
    #427,#428,#429,#430,#431,#432,#433,#434,#435,#436,#437,#438,#439,
    #440,#441,#442,#443,#444,#445,#446,#447,#448,#449,#450,#451,#452,
    #453,#454,#455,#456,#457,#458,#459,#460,#461,#462,#463,#464,#465,
    #466,#467,#468,#469,#470),.UNSPECIFIED.,.F.,.F.,(8,6,6,6,6,6,6,6,8),
  (0.,0.123759322927,0.250003106791,0.376251306467,0.499993316471,
    0.62376251167,0.750018305479,0.876273907865,1.),.UNSPECIFIED.);
#421 = CARTESIAN_POINT('',(0.,4.E-02));
#422 = CARTESIAN_POINT('',(0.131766813288,4.E-02));
#423 = CARTESIAN_POINT('',(0.26032530298,4.568550529678E-02));
#424 = CARTESIAN_POINT('',(0.385768042811,5.655681988014E-02));
#425 = CARTESIAN_POINT('',(0.507922299789,7.12162701045E-02));
#426 = CARTESIAN_POINT('',(0.62636925899,8.768808812076E-02));
#427 = CARTESIAN_POINT('',(0.740306396042,0.104136009865));
#428 = CARTESIAN_POINT('',(0.958320197061,0.134739887373));
#429 = CARTESIAN_POINT('',(1.064832298203,0.149219128174));
#430 = CARTESIAN_POINT('',(1.168658636994,0.161676921585));
#431 = CARTESIAN_POINT('',(1.270498166096,0.171420045884));
#432 = CARTESIAN_POINT('',(1.371024561172,0.178047952862));
#433 = CARTESIAN_POINT('',(1.470881285991,0.181365160233));
#434 = CARTESIAN_POINT('',(1.670714862472,0.181365160233));
#435 = CARTESIAN_POINT('',(1.770570735882,0.178047727464));
#436 = CARTESIAN_POINT('',(1.871095144207,0.171419852068));
#437 = CARTESIAN_POINT('',(1.972933040492,0.161677030609));
#438 = CARTESIAN_POINT('',(2.076759045852,0.149219306962));
#439 = CARTESIAN_POINT('',(2.183272077121,0.134739940633));
#440 = CARTESIAN_POINT('',(2.401267757445,0.104138606833));
#441 = CARTESIAN_POINT('',(2.515208751604,8.769030058615E-02));
#442 = CARTESIAN_POINT('',(2.633671022732,7.121572264244E-02));
#443 = CARTESIAN_POINT('',(2.75584314721,5.655362413457E-02));
#444 = CARTESIAN_POINT('',(2.881298361866,4.568300354745E-02));
#445 = CARTESIAN_POINT('',(3.009854782127,4.E-02));
#446 = CARTESIAN_POINT('',(3.273359466878,4.E-02));
#447 = CARTESIAN_POINT('',(3.401917956569,4.568550529678E-02));
#448 = CARTESIAN_POINT('',(3.527360696401,5.655681988016E-02));
#449 = CARTESIAN_POINT('',(3.649514953378,7.121627010446E-02));
#450 = CARTESIAN_POINT('',(3.76796191258,8.768808812079E-02));
#451 = CARTESIAN_POINT('',(3.881899049631,0.104136009865));
#452 = CARTESIAN_POINT('',(4.099914541837,0.134740124775));
#453 = CARTESIAN_POINT('',(4.20642795592,0.149219535615));
#454 = CARTESIAN_POINT('',(4.31025344743,0.161677126658));
#455 = CARTESIAN_POINT('',(4.412090507058,0.17141983156));
#456 = CARTESIAN_POINT('',(4.512614325295,0.178047715124));
#457 = CARTESIAN_POINT('',(4.612470290922,0.181365160233));
#458 = CARTESIAN_POINT('',(4.812307518355,0.181365160233));
#459 = CARTESIAN_POINT('',(4.912163384117,0.178047727362));
#460 = CARTESIAN_POINT('',(5.012687800805,0.171419852623));
#461 = CARTESIAN_POINT('',(5.114525697994,0.161677029509));
#462 = CARTESIAN_POINT('',(5.218351693232,0.149219307965));
#463 = CARTESIAN_POINT('',(5.324864733405,0.134739940255));
#464 = CARTESIAN_POINT('',(5.542840201788,0.104141443724));
#465 = CARTESIAN_POINT('',(5.65679104068,8.769193107804E-02));
#466 = CARTESIAN_POINT('',(5.775272088104,7.121393729617E-02));
#467 = CARTESIAN_POINT('',(5.897461324943,5.654988759139E-02));
#468 = CARTESIAN_POINT('',(6.022924682152,4.568065215513E-02));
#469 = CARTESIAN_POINT('',(6.15147476788,4.E-02));
#470 = CARTESIAN_POINT('',(6.28318530718,4.E-02));
#471 = ( GEOMETRIC_REPRESENTATION_CONTEXT(2) 
PARAMETRIC_REPRESENTATION_CONTEXT() REPRESENTATION_CONTEXT('2D SPACE',''
  ) );
#472 = ADVANCED_FACE('',(#473),#45,.T.);
#473 = FACE_BOUND('',#474,.T.);
#474 = EDGE_LOOP('',(#475,#494));
#475 = ORIENTED_EDGE('',*,*,#476,.T.);
#476 = EDGE_CURVE('',#24,#22,#477,.T.);
#477 = SURFACE_CURVE('',#478,(#482,#488),.PCURVE_S1.);
#478 = LINE('',#479,#480);
#479 = CARTESIAN_POINT('',(49.3,-10.,45.));
#480 = VECTOR('',#481,1.);
#481 = DIRECTION('',(0.,1.,0.));
#482 = PCURVE('',#45,#483);
#483 = DEFINITIONAL_REPRESENTATION('',(#484),#487);
#484 = B_SPLINE_CURVE_WITH_KNOTS('',1,(#485,#486),.UNSPECIFIED.,.F.,.F.,
  (2,2),(0.3,19.7),.PIECEWISE_BEZIER_KNOTS.);
#485 = CARTESIAN_POINT('',(-0.74,-9.7));
#486 = CARTESIAN_POINT('',(-0.74,9.7));
#487 = ( GEOMETRIC_REPRESENTATION_CONTEXT(2) 
PARAMETRIC_REPRESENTATION_CONTEXT() REPRESENTATION_CONTEXT('2D SPACE',''
  ) );
#488 = PCURVE('',#72,#489);
#489 = DEFINITIONAL_REPRESENTATION('',(#490),#493);
#490 = B_SPLINE_CURVE_WITH_KNOTS('',1,(#491,#492),.UNSPECIFIED.,.F.,.F.,
  (2,2),(0.3,19.7),.PIECEWISE_BEZIER_KNOTS.);
#491 = CARTESIAN_POINT('',(135.,-10.3));
#492 = CARTESIAN_POINT('',(135.,-29.7));
#493 = ( GEOMETRIC_REPRESENTATION_CONTEXT(2) 
PARAMETRIC_REPRESENTATION_CONTEXT() REPRESENTATION_CONTEXT('2D SPACE',''
  ) );
#494 = ORIENTED_EDGE('',*,*,#21,.T.);
#495 = ADVANCED_FACE('',(#496,#520,#546),#72,.T.);
#496 = FACE_BOUND('',#497,.T.);
#497 = EDGE_LOOP('',(#498,#499,#518,#519));
#498 = ORIENTED_EDGE('',*,*,#112,.F.);
#499 = ORIENTED_EDGE('',*,*,#500,.T.);
#500 = EDGE_CURVE('',#84,#58,#501,.T.);
#501 = SURFACE_CURVE('',#502,(#506,#512),.PCURVE_S1.);
#502 = LINE('',#503,#504);
#503 = CARTESIAN_POINT('',(49.3,-10.,-45.));
#504 = VECTOR('',#505,1.);
#505 = DIRECTION('',(0.,1.,0.));
#506 = PCURVE('',#72,#507);
#507 = DEFINITIONAL_REPRESENTATION('',(#508),#511);
#508 = B_SPLINE_CURVE_WITH_KNOTS('',1,(#509,#510),.UNSPECIFIED.,.F.,.F.,
  (2,2),(0.3,19.7),.PIECEWISE_BEZIER_KNOTS.);
#509 = CARTESIAN_POINT('',(45.,-10.3));
#510 = CARTESIAN_POINT('',(45.,-29.7));
#511 = ( GEOMETRIC_REPRESENTATION_CONTEXT(2) 
PARAMETRIC_REPRESENTATION_CONTEXT() REPRESENTATION_CONTEXT('2D SPACE',''
  ) );
#512 = PCURVE('',#100,#513);
#513 = DEFINITIONAL_REPRESENTATION('',(#514),#517);
#514 = B_SPLINE_CURVE_WITH_KNOTS('',1,(#515,#516),.UNSPECIFIED.,.F.,.F.,
  (2,2),(0.3,19.7),.PIECEWISE_BEZIER_KNOTS.);
#515 = CARTESIAN_POINT('',(-0.74,-9.7));
#516 = CARTESIAN_POINT('',(-0.74,9.7));
#517 = ( GEOMETRIC_REPRESENTATION_CONTEXT(2) 
PARAMETRIC_REPRESENTATION_CONTEXT() REPRESENTATION_CONTEXT('2D SPACE',''
  ) );
#518 = ORIENTED_EDGE('',*,*,#57,.T.);
#519 = ORIENTED_EDGE('',*,*,#476,.F.);
#520 = FACE_BOUND('',#521,.T.);
#521 = EDGE_LOOP('',(#522));
#522 = ORIENTED_EDGE('',*,*,#523,.F.);
#523 = EDGE_CURVE('',#524,#524,#526,.T.);
#524 = VERTEX_POINT('',#525);
#525 = CARTESIAN_POINT('',(49.3,-4.041334437186E-16,-36.65));
#526 = SURFACE_CURVE('',#527,(#532,#539),.PCURVE_S1.);
#527 = CIRCLE('',#528,1.65);
#528 = AXIS2_PLACEMENT_3D('',#529,#530,#531);
#529 = CARTESIAN_POINT('',(49.3,0.,-35.));
#530 = DIRECTION('',(1.,0.,1.110223024625E-16));
#531 = DIRECTION('',(1.110223024625E-16,0.,-1.));
#532 = PCURVE('',#72,#533);
#533 = DEFINITIONAL_REPRESENTATION('',(#534),#538);
#534 = CIRCLE('',#535,1.65);
#535 = AXIS2_PLACEMENT_2D('',#536,#537);
#536 = CARTESIAN_POINT('',(55.,-20.));
#537 = DIRECTION('',(-1.,0.));
#538 = ( GEOMETRIC_REPRESENTATION_CONTEXT(2) 
PARAMETRIC_REPRESENTATION_CONTEXT() REPRESENTATION_CONTEXT('2D SPACE',''
  ) );
#539 = PCURVE('',#243,#540);
#540 = DEFINITIONAL_REPRESENTATION('',(#541),#545);
#541 = LINE('',#542,#543);
#542 = CARTESIAN_POINT('',(0.,9.));
#543 = VECTOR('',#544,1.);
#544 = DIRECTION('',(1.,0.));
#545 = ( GEOMETRIC_REPRESENTATION_CONTEXT(2) 
PARAMETRIC_REPRESENTATION_CONTEXT() REPRESENTATION_CONTEXT('2D SPACE',''
  ) );
#546 = FACE_BOUND('',#547,.T.);
#547 = EDGE_LOOP('',(#548));
#548 = ORIENTED_EDGE('',*,*,#549,.F.);
#549 = EDGE_CURVE('',#550,#550,#552,.T.);
#550 = VERTEX_POINT('',#551);
#551 = CARTESIAN_POINT('',(49.3,-4.041334437186E-16,33.35));
#552 = SURFACE_CURVE('',#553,(#558,#565),.PCURVE_S1.);
#553 = CIRCLE('',#554,1.65);
#554 = AXIS2_PLACEMENT_3D('',#555,#556,#557);
#555 = CARTESIAN_POINT('',(49.3,0.,35.));
#556 = DIRECTION('',(1.,0.,1.110223024625E-16));
#557 = DIRECTION('',(1.110223024625E-16,0.,-1.));
#558 = PCURVE('',#72,#559);
#559 = DEFINITIONAL_REPRESENTATION('',(#560),#564);
#560 = CIRCLE('',#561,1.65);
#561 = AXIS2_PLACEMENT_2D('',#562,#563);
#562 = CARTESIAN_POINT('',(125.,-20.));
#563 = DIRECTION('',(-1.,0.));
#564 = ( GEOMETRIC_REPRESENTATION_CONTEXT(2) 
PARAMETRIC_REPRESENTATION_CONTEXT() REPRESENTATION_CONTEXT('2D SPACE',''
  ) );
#565 = PCURVE('',#414,#566);
#566 = DEFINITIONAL_REPRESENTATION('',(#567),#571);
#567 = LINE('',#568,#569);
#568 = CARTESIAN_POINT('',(0.,9.));
#569 = VECTOR('',#570,1.);
#570 = DIRECTION('',(1.,0.));
#571 = ( GEOMETRIC_REPRESENTATION_CONTEXT(2) 
PARAMETRIC_REPRESENTATION_CONTEXT() REPRESENTATION_CONTEXT('2D SPACE',''
  ) );
#572 = ADVANCED_FACE('',(#573),#100,.F.);
#573 = FACE_BOUND('',#574,.F.);
#574 = EDGE_LOOP('',(#575,#576));
#575 = ORIENTED_EDGE('',*,*,#500,.T.);
#576 = ORIENTED_EDGE('',*,*,#83,.T.);
#577 = ADVANCED_FACE('',(#578),#243,.F.);
#578 = FACE_BOUND('',#579,.F.);
#579 = EDGE_LOOP('',(#580,#581,#602,#603));
#580 = ORIENTED_EDGE('',*,*,#523,.F.);
#581 = ORIENTED_EDGE('',*,*,#582,.F.);
#582 = EDGE_CURVE('',#134,#524,#583,.T.);
#583 = SEAM_CURVE('',#584,(#588,#595),.PCURVE_S1.);
#584 = LINE('',#585,#586);
#585 = CARTESIAN_POINT('',(40.3,-4.041334437186E-16,-36.65));
#586 = VECTOR('',#587,1.);
#587 = DIRECTION('',(1.,0.,1.110223024625E-16));
#588 = PCURVE('',#243,#589);
#589 = DEFINITIONAL_REPRESENTATION('',(#590),#594);
#590 = LINE('',#591,#592);
#591 = CARTESIAN_POINT('',(6.28318530718,-0.));
#592 = VECTOR('',#593,1.);
#593 = DIRECTION('',(0.,1.));
#594 = ( GEOMETRIC_REPRESENTATION_CONTEXT(2) 
PARAMETRIC_REPRESENTATION_CONTEXT() REPRESENTATION_CONTEXT('2D SPACE',''
  ) );
#595 = PCURVE('',#243,#596);
#596 = DEFINITIONAL_REPRESENTATION('',(#597),#601);
#597 = LINE('',#598,#599);
#598 = CARTESIAN_POINT('',(0.,-0.));
#599 = VECTOR('',#600,1.);
#600 = DIRECTION('',(0.,1.));
#601 = ( GEOMETRIC_REPRESENTATION_CONTEXT(2) 
PARAMETRIC_REPRESENTATION_CONTEXT() REPRESENTATION_CONTEXT('2D SPACE',''
  ) );
#602 = ORIENTED_EDGE('',*,*,#133,.T.);
#603 = ORIENTED_EDGE('',*,*,#582,.T.);
#604 = ADVANCED_FACE('',(#605),#414,.F.);
#605 = FACE_BOUND('',#606,.F.);
#606 = EDGE_LOOP('',(#607,#608,#629,#630));
#607 = ORIENTED_EDGE('',*,*,#549,.F.);
#608 = ORIENTED_EDGE('',*,*,#609,.F.);
#609 = EDGE_CURVE('',#305,#550,#610,.T.);
#610 = SEAM_CURVE('',#611,(#615,#622),.PCURVE_S1.);
#611 = LINE('',#612,#613);
#612 = CARTESIAN_POINT('',(40.3,-4.041334437186E-16,33.35));
#613 = VECTOR('',#614,1.);
#614 = DIRECTION('',(1.,0.,1.110223024625E-16));
#615 = PCURVE('',#414,#616);
#616 = DEFINITIONAL_REPRESENTATION('',(#617),#621);
#617 = LINE('',#618,#619);
#618 = CARTESIAN_POINT('',(6.28318530718,-0.));
#619 = VECTOR('',#620,1.);
#620 = DIRECTION('',(0.,1.));
#621 = ( GEOMETRIC_REPRESENTATION_CONTEXT(2) 
PARAMETRIC_REPRESENTATION_CONTEXT() REPRESENTATION_CONTEXT('2D SPACE',''
  ) );
#622 = PCURVE('',#414,#623);
#623 = DEFINITIONAL_REPRESENTATION('',(#624),#628);
#624 = LINE('',#625,#626);
#625 = CARTESIAN_POINT('',(0.,-0.));
#626 = VECTOR('',#627,1.);
#627 = DIRECTION('',(0.,1.));
#628 = ( GEOMETRIC_REPRESENTATION_CONTEXT(2) 
PARAMETRIC_REPRESENTATION_CONTEXT() REPRESENTATION_CONTEXT('2D SPACE',''
  ) );
#629 = ORIENTED_EDGE('',*,*,#304,.T.);
#630 = ORIENTED_EDGE('',*,*,#609,.T.);
#631 = ( GEOMETRIC_REPRESENTATION_CONTEXT(3) 
GLOBAL_UNCERTAINTY_ASSIGNED_CONTEXT((#635)) GLOBAL_UNIT_ASSIGNED_CONTEXT
((#632,#633,#634)) REPRESENTATION_CONTEXT('Context #1',
  '3D Context with UNIT and UNCERTAINTY') );
#632 = ( LENGTH_UNIT() NAMED_UNIT(*) SI_UNIT(.MILLI.,.METRE.) );
#633 = ( NAMED_UNIT(*) PLANE_ANGLE_UNIT() SI_UNIT($,.RADIAN.) );
#634 = ( NAMED_UNIT(*) SI_UNIT($,.STERADIAN.) SOLID_ANGLE_UNIT() );
#635 = UNCERTAINTY_MEASURE_WITH_UNIT(LENGTH_MEASURE(1.E-07),#632,
  'distance_accuracy_value','confusion accuracy');
#636 = PRODUCT_RELATED_PRODUCT_CATEGORY('part',$,(#7));
ENDSEC;
END-ISO-10303-21;
