<?xml version="1.0" encoding="UTF-8" standalone="no"?>
<svg
   xmlns:svg="http://www.w3.org/2000/svg"
   xmlns="http://www.w3.org/2000/svg"
   width="900.0"
   height="900.0"

>
    <g transform="scale(5.443548387096772, -5.443548387096772)   translate(65.6740740740741,-60.17407417407408)" stroke-width="0.3"  fill="none">
       <!-- hidden lines -->
       <g  stroke="rgb(160,160,160)" fill="none" stroke-dasharray="0.3,0.3" >

       </g>

       <!-- solid lines -->
       <g  stroke="rgb(0,0,0)" fill="none">
			<path d="M-62.0,47.0 L-62.0,-57.0 " />
			<path d="M-62.0,-57.0 L-36.0,-57.0 " />
			<path d="M-24.0,-57.0 L24.0,-57.0 " />
			<path d="M36.0,-57.0 L62.0,-57.0 " />
			<path d="M62.0,-57.0 L62.0,47.0 " />
			<path d="M62.0,47.0 L61.309999999999995,47.0 " />
			<path d="M58.0,48.5 L58.0,47.739999999999995 " />
			<path d="M58.0,48.5 L20.4,48.5 " />
			<path d="M20.4,48.5 L20.4,47.739999999999995 " />
			<path d="M-20.4,48.5 L-20.4,47.739999999999995 " />
			<path d="M-20.4,48.5 L-55.20000000000065,48.5 " />
			<path d="M-55.2,48.5 L-55.2,47.739999999999995 " />
			<path d="M-56.8,48.5 L-56.8,47.739999999999995 " />
			<path d="M-56.79999999999935,48.5 L-58.0,48.5 " />
			<path d="M-58.0,48.5 L-58.0,47.739999999999995 " />
			<path d="M-60.94,47.0 L-62.0,47.0 " />
			<path d="M39.5,0.0 L39.49605273544486,-0.1884404417813983 L39.48421786662277,-0.3765502949954197 L39.46451615591515,-0.563999551039369 L39.43698216681727,-0.7504593602224602 L39.401664203302126,-0.935602608679917 L39.35862422507884,-1.1191044922418463 L39.3079377388943,-1.3006430862501221 L39.249693666068666,-1.4798999103236246 L39.18399418649713,-1.6565604870810506 L39.1109545593917,-1.8303148938411007 L39.030702921077356,-2.0008583063321734 L38.943380060197384,-2.1678915334577185 L38.84913917072228,-2.331121542179085 L38.748145583195445,-2.4902619715950474 L38.640576474687265,-2.6450336353161283 L38.52662055796628,-2.7951650112523954 L38.406477750432906,-2.940392717955473 L38.280358823396355,-3.0804619766790977 L38.14848503231015,-3.2151270583476137 L38.01108772861486,-3.3441517146482727 L37.86840795386911,-3.46730959249105 L37.72069601688069,-3.5843846311088816 L37.56821105457995,-3.6951714411016665 L37.41122057740549,-3.799475664759066 L37.25,-3.8971143170299727 L37.08483215803938,-3.987916106540465 L36.91600681204283,-4.071721736097087 L36.74382013903446,-4.148384182148252 L36.56857421294817,-4.217768952713511 L36.390576474687265,-4.2797543233281905 L36.21013919276869,-4.334231550589461 L36.027578915497955,-4.381105062929221 L35.84321591563576,-4.420292628279099 L35.657373628530856,-4.451725498333447 L35.47037808470444,-4.4753485291572295 L35.28255733788191,-4.491120277927222 L35.0942408894751,-4.499013075636805 L34.90575911052489,-4.499013075636805 L34.71744266211809,-4.491120277927222 L34.52962191529556,-4.4753485291572295 L34.342626371469144,-4.451725498333447 L34.15678408436424,-4.420292628279099 L33.972421084502045,-4.381105062929221 L33.7898608072313,-4.334231550589461 L33.609423525312735,-4.2797543233281905 L33.43142578705183,-4.21776895271351 L33.25617986096553,-4.148384182148251 L33.08399318795717,-4.0717217360970865 L32.91516784196062,-3.9879161065404647 L32.75,-3.8971143170299722 L32.58877942259451,-3.799475664759066 L32.43178894542005,-3.695171441101666 L32.27930398311931,-3.584384631108881 L32.13159204613089,-3.4673095924910493 L31.988912271385136,-3.3441517146482713 L31.85151496768985,-3.215127058347612 L31.719641176603645,-3.080461976679096 L31.593522249567094,-2.9403927179554707 L31.473379442033718,-2.7951650112523923 L31.359423525312735,-2.645033635316125 L31.251854416804548,-2.4902619715950434 L31.15086082927772,-2.3311215421790807 L31.056619939802612,-2.167891533457713 L30.96929707892264,-2.0008583063321677 L30.889045440608292,-1.8303148938410947 L30.816005813502866,-1.6565604870810442 L30.750306333931334,-1.4798999103236175 L30.692062261105697,-1.3006430862501148 L30.64137577492116,-1.119104492241839 L30.598335796697874,-0.9356026086799091 L30.563017833182727,-0.7504593602224519 L30.535483844084848,-0.5639995510393605 L30.51578213337723,-0.3765502949954108 L30.503947264555137,-0.18844044178138916 L30.5,9.4409161620101e-15 L30.503947264555137,0.188440441781408 L30.515782133377233,0.3765502949954297 L30.53548384408485,0.5639995510393793 L30.56301783318273,0.7504593602224705 L30.598335796697878,0.9356026086799275 L30.641375774921162,1.1191044922418572 L30.6920622611057,1.300643086250133 L30.750306333931338,1.4798999103236357 L30.816005813502873,1.656560487081062 L30.8890454406083,1.830314893841112 L30.969297078922647,2.000858306332185 L31.05661993980262,2.1678915334577296 L31.150860829277725,2.3311215421790967 L31.25185441680456,2.4902619715950594 L31.359423525312746,2.64503363531614 L31.47337944203373,2.7951650112524073 L31.593522249567105,2.9403927179554854 L31.71964117660366,3.0804619766791093 L31.851514967689866,3.2151270583476252 L31.98891227138515,3.344151714648284 L32.131592046130905,3.4673095924910595 L32.27930398311933,3.5843846311088914 L32.43178894542007,3.695171441101676 L32.58877942259453,3.7994756647590755 L32.750000000000014,3.8971143170299807 L32.91516784196064,3.9879161065404727 L33.083993187957184,4.0717217360970945 L33.25617986096555,4.148384182148258 L33.43142578705184,4.217768952713517 L33.60942352531275,4.279754323328196 L33.78986080723132,4.334231550589466 L33.972421084502066,4.381105062929225 L34.156784084364254,4.420292628279102 L34.342626371469166,4.45172549833345 L34.52962191529558,4.475348529157232 L34.71744266211811,4.491120277927223 L34.90575911052491,4.499013075636805 L35.094240889475124,4.499013075636804 L35.282557337881926,4.491120277927221 L35.47037808470446,4.475348529157229 L35.65737362853087,4.451725498333445 L35.84321591563578,4.420292628279096 L36.02757891549797,4.381105062929217 L36.210139192768715,4.334231550589457 L36.39057647468728,4.279754323328185 L36.568574212948185,4.217768952713505 L36.74382013903448,4.148384182148245 L36.916006812042845,4.071721736097079 L37.0848321580394,3.9879161065404567 L37.250000000000014,3.897114317029964 L37.4112205774055,3.799475664759057 L37.56821105457996,3.6951714411016563 L37.7206960168807,3.5843846311088705 L37.868407953869124,3.4673095924910378 L38.011087728614875,3.3441517146482598 L38.14848503231016,3.2151270583475995 L38.28035882339637,3.0804619766790826 L38.40647775043292,2.940392717955458 L38.5266205579663,2.795165011252379 L38.64057647468728,2.6450336353161106 L38.74814558319546,2.490261971595029 L38.849139170722296,2.3311215421790656 L38.9433800601974,2.167891533457698 L39.03070292107737,2.000858306332152 L39.110954559391715,1.8303148938410787 L39.18399418649714,1.656560487081028 L39.24969366606867,1.479899910323601 L39.30793773889431,1.3006430862500982 L39.35862422507885,1.119104492241822 L39.40166420330213,0.935602608679892 L39.43698216681727,0.7504593602224348 L39.464516155915156,0.5639995510393432 L39.48421786662277,0.37655029499539344 L39.49605273544486,0.18844044178137173 L39.5,-2.687543810132133e-14 " />
			<path d="M57.0,-12.0 L-57.0,-12.0 " />
			<path d="M-57.0,-12.0 L-57.0,-18.5 " />
			<path d="M57.0,-12.0 L57.0,-18.5 " />
			<path d="M57.0,-18.5 L-57.0,-18.5 " />
			<path d="M-30.5,0.0 L-30.503947264555137,-0.1884404417813983 L-30.51578213337723,-0.3765502949954197 L-30.53548384408485,-0.563999551039369 L-30.563017833182727,-0.7504593602224602 L-30.598335796697874,-0.935602608679917 L-30.64137577492116,-1.1191044922418463 L-30.692062261105697,-1.3006430862501221 L-30.750306333931334,-1.4798999103236246 L-30.81600581350287,-1.6565604870810506 L-30.889045440608296,-1.8303148938411007 L-30.969297078922644,-2.0008583063321734 L-31.056619939802616,-2.1678915334577185 L-31.15086082927772,-2.331121542179085 L-31.25185441680455,-2.4902619715950474 L-31.359423525312735,-2.6450336353161283 L-31.47337944203372,-2.7951650112523954 L-31.593522249567094,-2.940392717955473 L-31.71964117660365,-3.0804619766790977 L-31.851514967689855,-3.2151270583476137 L-31.988912271385136,-3.3441517146482727 L-32.13159204613089,-3.46730959249105 L-32.27930398311931,-3.5843846311088816 L-32.43178894542005,-3.6951714411016665 L-32.58877942259451,-3.799475664759066 L-32.75,-3.8971143170299727 L-32.91516784196062,-3.987916106540465 L-33.08399318795717,-4.071721736097087 L-33.25617986096554,-4.148384182148252 L-33.43142578705183,-4.217768952713511 L-33.609423525312735,-4.2797543233281905 L-33.78986080723131,-4.334231550589461 L-33.972421084502045,-4.381105062929221 L-34.15678408436424,-4.420292628279099 L-34.342626371469144,-4.451725498333447 L-34.52962191529556,-4.4753485291572295 L-34.71744266211809,-4.491120277927222 L-34.9057591105249,-4.499013075636805 L-35.09424088947511,-4.499013075636805 L-35.28255733788191,-4.491120277927222 L-35.47037808470444,-4.4753485291572295 L-35.657373628530856,-4.451725498333447 L-35.84321591563576,-4.420292628279099 L-36.027578915497955,-4.381105062929221 L-36.2101391927687,-4.334231550589461 L-36.390576474687265,-4.2797543233281905 L-36.56857421294817,-4.21776895271351 L-36.74382013903447,-4.148384182148251 L-36.91600681204283,-4.0717217360970865 L-37.08483215803938,-3.9879161065404647 L-37.25,-3.8971143170299722 L-37.41122057740549,-3.799475664759066 L-37.56821105457995,-3.695171441101666 L-37.72069601688069,-3.584384631108881 L-37.86840795386911,-3.4673095924910493 L-38.01108772861487,-3.3441517146482713 L-38.14848503231015,-3.215127058347612 L-38.280358823396355,-3.080461976679096 L-38.406477750432906,-2.9403927179554707 L-38.52662055796628,-2.7951650112523923 L-38.640576474687265,-2.645033635316125 L-38.74814558319545,-2.4902619715950434 L-38.84913917072228,-2.3311215421790807 L-38.94338006019739,-2.167891533457713 L-39.03070292107736,-2.0008583063321677 L-39.11095455939171,-1.8303148938410947 L-39.18399418649713,-1.6565604870810442 L-39.249693666068666,-1.4798999103236175 L-39.3079377388943,-1.3006430862501148 L-39.35862422507884,-1.119104492241839 L-39.401664203302126,-0.9356026086799091 L-39.43698216681727,-0.7504593602224519 L-39.46451615591515,-0.5639995510393605 L-39.48421786662277,-0.3765502949954108 L-39.49605273544486,-0.18844044178138916 L-39.5,9.4409161620101e-15 L-39.49605273544486,0.188440441781408 L-39.48421786662277,0.3765502949954297 L-39.46451615591515,0.5639995510393793 L-39.43698216681727,0.7504593602224705 L-39.401664203302126,0.9356026086799275 L-39.358624225078835,1.1191044922418572 L-39.307937738894296,1.300643086250133 L-39.24969366606866,1.4798999103236357 L-39.18399418649713,1.656560487081062 L-39.1109545593917,1.830314893841112 L-39.03070292107735,2.000858306332185 L-38.94338006019738,2.1678915334577296 L-38.849139170722275,2.3311215421790967 L-38.74814558319544,2.4902619715950594 L-38.64057647468726,2.64503363531614 L-38.52662055796627,2.7951650112524073 L-38.40647775043289,2.9403927179554854 L-38.28035882339634,3.0804619766791093 L-38.148485032310134,3.2151270583476252 L-38.011087728614854,3.344151714648284 L-37.868407953869095,3.4673095924910595 L-37.72069601688067,3.5843846311088914 L-37.56821105457993,3.695171441101676 L-37.41122057740547,3.7994756647590755 L-37.249999999999986,3.8971143170299807 L-37.08483215803936,3.9879161065404727 L-36.916006812042816,4.0717217360970945 L-36.74382013903445,4.148384182148258 L-36.56857421294816,4.217768952713517 L-36.39057647468725,4.279754323328196 L-36.21013919276868,4.334231550589466 L-36.027578915497934,4.381105062929225 L-35.843215915635746,4.420292628279102 L-35.657373628530834,4.45172549833345 L-35.47037808470442,4.475348529157232 L-35.28255733788189,4.491120277927223 L-35.09424088947509,4.499013075636805 L-34.905759110524876,4.499013075636804 L-34.717442662118074,4.491120277927221 L-34.52962191529554,4.475348529157229 L-34.34262637146913,4.451725498333445 L-34.15678408436422,4.420292628279096 L-33.97242108450203,4.381105062929217 L-33.789860807231285,4.334231550589457 L-33.60942352531272,4.279754323328185 L-33.431425787051815,4.217768952713505 L-33.25617986096552,4.148384182148245 L-33.083993187957155,4.071721736097079 L-32.9151678419606,3.9879161065404567 L-32.749999999999986,3.897114317029964 L-32.5887794225945,3.799475664759057 L-32.43178894542004,3.6951714411016563 L-32.2793039831193,3.5843846311088705 L-32.131592046130876,3.4673095924910378 L-31.98891227138512,3.3441517146482598 L-31.85151496768984,3.2151270583475995 L-31.719641176603634,3.0804619766790826 L-31.59352224956708,2.940392717955458 L-31.473379442033707,2.795165011252379 L-31.359423525312724,2.6450336353161106 L-31.25185441680454,2.490261971595029 L-31.150860829277708,2.3311215421790656 L-31.0566199398026,2.167891533457698 L-30.96929707892263,2.000858306332152 L-30.889045440608285,1.8303148938410787 L-30.81600581350286,1.656560487081028 L-30.750306333931327,1.479899910323601 L-30.69206226110569,1.3006430862500982 L-30.641375774921155,1.119104492241822 L-30.598335796697867,0.935602608679892 L-30.563017833182723,0.7504593602224348 L-30.535483844084848,0.5639995510393432 L-30.51578213337723,0.37655029499539344 L-30.503947264555137,0.18844044178137173 L-30.5,-2.687543810132133e-14 " />
			<path d="M57.0,18.5 L-57.0,18.5 " />
			<path d="M-57.0,18.5 L-57.0,12.0 " />
			<path d="M57.0,18.5 L57.0,12.0 " />
			<path d="M57.0,12.0 L-57.0,12.0 " />
			<path d="M58.0,48.5 L58.0,48.60028835127271 L58.0,48.89612452839033 L58.0,49.37267407012789 L58.0,50.00604079256508 L58.0,50.76446504352978 L58.0,51.60991626417476 L58.0,52.500000000000014 L58.0,53.39008373582527 L58.0,54.23553495647025 L58.0,54.99395920743494 L58.0,55.62732592987212 L58.0,56.103875471609676 L58.0,56.3997116487273 L58.0,56.49999999999999 " />
			<path d="M20.4,48.5 L20.4,48.60028835127271 L20.4,48.89612452839033 L20.4,49.37267407012789 L20.4,50.00604079256508 L20.4,50.76446504352978 L20.4,51.60991626417476 L20.4,52.500000000000014 L20.4,53.39008373582527 L20.4,54.23553495647025 L20.4,54.99395920743494 L20.4,55.62732592987212 L20.4,56.103875471609676 L20.4,56.3997116487273 L20.4,56.49999999999999 " />
			<path d="M-20.4,48.5 L-20.4,48.60028835127271 L-20.4,48.89612452839033 L-20.4,49.37267407012789 L-20.4,50.00604079256508 L-20.4,50.76446504352978 L-20.4,51.60991626417476 L-20.4,52.500000000000014 L-20.4,53.39008373582527 L-20.4,54.23553495647025 L-20.4,54.99395920743494 L-20.4,55.62732592987212 L-20.4,56.103875471609676 L-20.4,56.3997116487273 L-20.4,56.49999999999999 " />
			<path d="M-55.2,48.5 L-55.201155928010294,48.500231030980835 L-55.20459971814299,48.50091741248189 L-55.21817964592459,48.50359622994566 L-55.27053267395634,48.51350748954061 L-55.35250028453544,48.52768884193867 L-55.457850191200606,48.543495689810484 L-55.57959491059298,48.558332788569444 L-55.713323097324064,48.57034560534659 L-55.85477021741314,48.578126508285905 L-55.99993928485653,48.5808164110766 L-56.14511058067753,48.578130920420186 L-56.286563402251716,48.570353883960635 L-56.42030021290609,48.55834397279984 L-56.54205826617442,48.54350823272342 L-56.647442985600435,48.52769808857621 L-56.72944641315867,48.51351131635277 L-56.7818179103075,48.503596707725855 L-56.79540018501626,48.500917431595916 L-56.79884412274589,48.50023102080774 L-56.8,48.5 " />
			<path d="M-58.0,48.5 L-58.0,48.60028835127271 L-58.0,48.89612452839033 L-58.0,49.37267407012789 L-58.0,50.00604079256508 L-58.0,50.76446504352978 L-58.0,51.60991626417476 L-58.0,52.500000000000014 L-58.0,53.39008373582527 L-58.0,54.23553495647025 L-58.0,54.99395920743494 L-58.0,55.62732592987212 L-58.0,56.103875471609676 L-58.0,56.3997116487273 L-58.0,56.49999999999999 " />
			<path d="M-56.0,56.41918358845309 L-55.837212407948094,56.42256291264826 L-55.67961267684584,56.43225737051345 L-55.533123695310174,56.44689415849698 L-55.404200293164294,56.464212060651256 " />
			<path d="M-55.403902278017426,56.46425686166671 L-55.25495103524361,56.48937313894749 L-55.21403833072498,56.49721599273628 L-55.203534458507846,56.49929461774533 L-55.199999999999996,56.5 " />
			<path d="M-55.199999999999996,56.5 L-55.201159014838275,56.49976835250248 L-55.20461196444529,56.49908015180403 L-55.21822767721427,56.49639437395408 L-55.270714862016625,56.48645917681703 L-55.352881037313225,56.472249111887905 L-55.45846334179613,56.45642033847063 L-55.580454332971634,56.44157564103412 L-55.7144331354677,56.42957357078159 L-55.85611827286088,56.42182380376153 L-56.00149904201225,56.41918387514462 L-56.146843367696135,56.42193357541836 L-56.28841245958359,56.42978138857255 L-56.42218919953991,56.44185789778291 L-56.54383731279859,56.45673589945716 L-56.64842686720493,56.47246238852456 L-56.72973794049191,56.486542045522924 L-56.781933905926,56.49642598770215 L-56.795452752069885,56.49909303658863 L-56.79886126404863,56.49977240816192 L-56.800000001933995,56.49999999788589 " />
			<path d="M-56.571819584011735,56.460678954433405 L-56.43283388480855,56.44301217937286 " />
			<path d="M-56.24398230277397,56.426770617004706 L-56.177231564232684,56.423188887524404 " />
			<path d="M37.25,0.0 L37.246048396469725,-0.13329141276085715 L37.23420746603041,-0.26611463457307305 L37.214518800382095,-0.39800311902578916 L37.18705155668093,-0.5284936030072133 L37.151902214622176,-0.6571277339331956 L37.10919423755177,-0.7834536797273972 L37.05907763879679,-0.9070277158979375 L37.001728454738185,-1.0274157841358544 L36.93734812647655,-1.1441950169607462 L36.866162792262955,-1.2569552230582182 L36.78842249318004,-1.365300328091835 L36.704400294863646,-1.4688497659286734 L36.61439132834975,-1.567239815391743 L36.51871175341597,-1.660124877843886 L36.41769764805885,-1.7471786911155949 L36.311703828007566,-1.8280954755127825 L36.20110260042078,-1.9025910078791082 L36.086282456144176,-1.9704036199401824 L35.96764670512217,-2.0312951174229226 L35.84561205975704,-2.085051616721625 L35.72060717119139,-2.13148429617193 L35.593071123655406,-2.170430059293807 L35.46345189216747,-2.2017521076738835 L35.332204769005585,-2.225340421474869 L35.1997907644766,-2.2411121458842382 L35.06667498760076,-2.2490118821447873 L34.933325012399244,-2.2490118821447873 L34.8002092355234,-2.2411121458842382 L34.66779523099442,-2.2253404214748693 L34.53654810783253,-2.2017521076738844 L34.4069288763446,-2.1704300592938077 L34.27939282880862,-2.1314842961719314 L34.15438794024297,-2.085051616721626 L34.03235329487783,-2.031295117422924 L33.913717543855824,-1.970403619940184 L33.798897399579225,-1.9025910078791097 L33.68829617199244,-1.8280954755127836 L33.58230235194115,-1.7471786911155962 L33.48128824658403,-1.6601248778438868 L33.38560867165025,-1.5672398153917435 L33.295599705136354,-1.4688497659286737 L33.21157750681996,-1.3653003280918348 L33.133837207737045,-1.2569552230582173 L33.06265187352345,-1.144195016960745 L32.998271545261815,-1.0274157841358529 L32.94092236120321,-0.9070277158979356 L32.890805762448224,-0.7834536797273951 L32.848097785377824,-0.657127733933193 L32.81294844331907,-0.5284936030072103 L32.785481199617905,-0.39800311902578567 L32.76579253396959,-0.26611463457306916 L32.753951603530275,-0.13329141276085282 L32.75,4.72045808100505e-15 L32.753951603530275,0.13329141276086226 L32.76579253396959,0.2661146345730785 L32.785481199617905,0.398003119025795 L32.81294844331908,0.5284936030072194 L32.848097785377824,0.657127733933202 L32.89080576244823,0.7834536797274039 L32.940922361203214,0.9070277158979443 L32.99827154526182,1.0274157841358615 L33.06265187352346,1.144195016960753 L33.13383720773705,1.2569552230582253 L33.211577506819964,1.365300328091842 L33.29559970513636,1.4688497659286808 L33.38560867165026,1.5672398153917504 L33.481288246584036,1.6601248778438933 L33.58230235194116,1.7471786911156022 L33.68829617199245,1.8280954755127887 L33.79889739957923,1.9025910078791137 L33.91371754385583,1.9704036199401869 L34.032353294877836,2.0312951174229266 L34.15438794024297,2.085051616721628 L34.279392828808625,2.1314842961719327 L34.4069288763446,2.1704300592938086 L34.53654810783254,2.201752107673885 L34.66779523099442,2.2253404214748698 L34.800209235523404,2.2411121458842387 L34.933325012399244,2.2490118821447873 L35.06667498760076,2.2490118821447873 L35.1997907644766,2.241112145884238 L35.332204769005585,2.2253404214748684 L35.46345189216747,2.201752107673884 L35.593071123655406,2.170430059293807 L35.72060717119138,2.1314842961719305 L35.84561205975704,2.0850516167216253 L35.96764670512217,2.031295117422923 L36.086282456144176,1.9704036199401838 L36.201102600420775,1.90259100787911 L36.31170382800756,1.8280954755127845 L36.41769764805885,1.7471786911155978 L36.51871175341597,1.660124877843889 L36.61439132834974,1.5672398153917466 L36.70440029486364,1.4688497659286777 L36.78842249318004,1.3653003280918397 L36.86616279226295,1.2569552230582233 L36.93734812647654,1.1441950169607522 L37.00172845473818,1.027415784135861 L37.059077638796786,0.9070277158979451 L37.10919423755177,0.7834536797274055 L37.151902214622176,0.6571277339332047 L37.18705155668092,0.5284936030072231 L37.21451880038209,0.3980031190257997 L37.23420746603041,0.26611463457308426 L37.246048396469725,0.13329141276086906 L37.25,1.2541499725567999e-14 " />
			<path d="M-32.75,0.0 L-32.753951603530275,-0.13329141276085715 L-32.76579253396959,-0.26611463457307305 L-32.785481199617905,-0.39800311902578916 L-32.81294844331907,-0.5284936030072133 L-32.848097785377824,-0.6571277339331956 L-32.89080576244823,-0.7834536797273972 L-32.94092236120321,-0.9070277158979375 L-32.998271545261815,-1.0274157841358544 L-33.06265187352345,-1.1441950169607462 L-33.133837207737045,-1.2569552230582182 L-33.21157750681996,-1.365300328091835 L-33.295599705136354,-1.4688497659286734 L-33.38560867165025,-1.567239815391743 L-33.48128824658403,-1.660124877843886 L-33.58230235194115,-1.7471786911155949 L-33.688296171992434,-1.8280954755127825 L-33.79889739957922,-1.9025910078791082 L-33.913717543855824,-1.9704036199401824 L-34.03235329487783,-2.0312951174229226 L-34.15438794024296,-2.085051616721625 L-34.27939282880861,-2.13148429617193 L-34.406928876344594,-2.170430059293807 L-34.53654810783253,-2.2017521076738835 L-34.667795230994415,-2.225340421474869 L-34.8002092355234,-2.2411121458842382 L-34.93332501239924,-2.2490118821447873 L-35.066674987600756,-2.2490118821447873 L-35.1997907644766,-2.2411121458842382 L-35.33220476900558,-2.2253404214748693 L-35.46345189216747,-2.2017521076738844 L-35.5930711236554,-2.1704300592938077 L-35.72060717119138,-2.1314842961719314 L-35.84561205975703,-2.085051616721626 L-35.96764670512217,-2.031295117422924 L-36.086282456144176,-1.970403619940184 L-36.201102600420775,-1.9025910078791097 L-36.31170382800756,-1.8280954755127836 L-36.41769764805885,-1.7471786911155962 L-36.51871175341597,-1.6601248778438868 L-36.61439132834975,-1.5672398153917435 L-36.704400294863646,-1.4688497659286737 L-36.78842249318004,-1.3653003280918348 L-36.866162792262955,-1.2569552230582173 L-36.93734812647655,-1.144195016960745 L-37.001728454738185,-1.0274157841358529 L-37.05907763879679,-0.9070277158979356 L-37.109194237551776,-0.7834536797273951 L-37.151902214622176,-0.657127733933193 L-37.18705155668093,-0.5284936030072103 L-37.214518800382095,-0.39800311902578567 L-37.23420746603041,-0.26611463457306916 L-37.246048396469725,-0.13329141276085282 L-37.25,4.72045808100505e-15 L-37.246048396469725,0.13329141276086226 L-37.23420746603041,0.2661146345730785 L-37.214518800382095,0.398003119025795 L-37.18705155668092,0.5284936030072194 L-37.151902214622176,0.657127733933202 L-37.10919423755177,0.7834536797274039 L-37.059077638796786,0.9070277158979443 L-37.00172845473818,1.0274157841358615 L-36.93734812647654,1.144195016960753 L-36.86616279226295,1.2569552230582253 L-36.788422493180036,1.365300328091842 L-36.70440029486364,1.4688497659286808 L-36.61439132834974,1.5672398153917504 L-36.518711753415964,1.6601248778438933 L-36.41769764805884,1.7471786911156022 L-36.31170382800755,1.8280954755127887 L-36.20110260042077,1.9025910078791137 L-36.08628245614417,1.9704036199401869 L-35.967646705122164,2.0312951174229266 L-35.84561205975703,2.085051616721628 L-35.720607171191375,2.1314842961719327 L-35.5930711236554,2.1704300592938086 L-35.46345189216746,2.201752107673885 L-35.33220476900558,2.2253404214748698 L-35.199790764476596,2.2411121458842387 L-35.066674987600756,2.2490118821447873 L-34.93332501239924,2.2490118821447873 L-34.8002092355234,2.241112145884238 L-34.667795230994415,2.2253404214748684 L-34.53654810783253,2.201752107673884 L-34.406928876344594,2.170430059293807 L-34.27939282880862,2.1314842961719305 L-34.15438794024296,2.0850516167216253 L-34.03235329487783,2.031295117422923 L-33.913717543855824,1.9704036199401838 L-33.798897399579225,1.90259100787911 L-33.68829617199244,1.8280954755127845 L-33.58230235194115,1.7471786911155978 L-33.48128824658403,1.660124877843889 L-33.38560867165026,1.5672398153917466 L-33.29559970513636,1.4688497659286777 L-33.21157750681996,1.3653003280918397 L-33.13383720773705,1.2569552230582233 L-33.06265187352346,1.1441950169607522 L-32.99827154526182,1.027415784135861 L-32.940922361203214,0.9070277158979451 L-32.89080576244823,0.7834536797274055 L-32.848097785377824,0.6571277339332047 L-32.81294844331908,0.5284936030072231 L-32.78548119961791,0.3980031190257997 L-32.76579253396959,0.26611463457308426 L-32.753951603530275,0.13329141276086906 L-32.75,1.2541499725567999e-14 " />
			<path d="M-60.940000000000005,47.739999999999995 L-60.940000000000005,41.44 " />
			<path d="M61.309999999999995,41.44 L-60.94,41.44 " />
			<path d="M61.309999999999995,47.739999999999995 L61.309999999999995,41.44 " />
			<path d="M61.309999999999995,47.739999999999995 L-60.940000000000005,47.739999999999995 " />
			<path d="M-60.94,41.44 L-60.94,-41.440000000000005 " />
			<path d="M-60.940000000000005,-41.44 L-60.940000000000005,-47.739999999999995 " />
			<path d="M61.309999999999995,41.44 L61.309999999999995,-25.500000000000007 " />
			<path d="M61.309999999999995,-41.44 L61.309999999999995,-47.739999999999995 " />
			<path d="M61.309999999999995,-25.5 L61.309999999999995,-39.0 " />
			<path d="M61.309999999999995,-39.00000000000001 L61.309999999999995,-41.440000000000005 " />
			<path d="M-57.940000000000005,41.44 L-57.940000000000005,-41.44 " />
			<path d="M61.309999999999995,-41.44 L-60.94,-41.44 " />
			<path d="M61.309999999999995,-47.739999999999995 L-60.940000000000005,-47.739999999999995 " />
			<path d="M58.309999999999995,41.44 L58.309999999999995,-25.5 " />
			<path d="M61.309999999999995,-25.5 L58.309999999999995,-25.5 " />
			<path d="M58.309999999999995,-25.5 L58.309999999999995,-39.0 " />
			<path d="M61.309999999999995,-39.0 L58.309999999999995,-39.0 " />
			<path d="M58.309999999999995,-39.0 L58.309999999999995,-41.44 " />
			<path d="M20.0,52.5 L20.0,47.739999999999995 " />
			<path d="M20.0,56.5 L20.0,56.47484883957297 L20.0,56.39971164872729 L20.0,56.27553332123347 L20.0,56.103875471609676 L20.0,55.886896796913135 L20.0,55.62732592987212 L20.0,55.32842712474619 L20.0,54.99395920743493 L20.0,54.62812830606135 L20.0,54.23553495647023 L20.0,53.82111624782067 L20.0,53.39008373582526 L20.0,52.94785790441323 L20.0,52.500000000000036 " />
			<path d="M20.0,52.5 L-20.0,52.5 " />
			<path d="M-20.0,52.5 L-20.0,47.739999999999995 " />
			<path d="M-20.0,52.5 L-20.0,52.94785790441323 L-20.0,53.39008373582526 L-20.0,53.82111624782067 L-20.0,54.23553495647023 L-20.0,54.62812830606135 L-20.0,54.99395920743493 L-20.0,55.32842712474619 L-20.0,55.62732592987212 L-20.0,55.886896796913135 L-20.0,56.103875471609676 L-20.0,56.27553332123347 L-20.0,56.3997116487273 L-20.0,56.47484883957297 L-20.0,56.5 " />
			<path d="M36.0,-47.739999999999995 L36.0,-57.0 " />
			<path d="M24.0,-47.739999999999995 L24.0,-57.0 " />
			<path d="M36.0,-57.0 L24.0,-57.0 " />
			<path d="M31.7,-52.5 L31.696036907623917,-52.61601210271994 L31.684166108261763,-52.73148330346362 L31.66444294905995,-52.84587522218948 L31.63695938849126,-52.958654510966944 L31.601843567601996,-53.06929534069068 L31.55925921255927,-53.17728185273861 L31.509404871284037,-53.28211056414296 L31.45251298772903,-53.383292715060236 L31.38884881811775,-53.48035654759527 L31.318709194197513,-53.57284950535429 L31.24242113927281,-53.66034034347171 L31.160340343471713,-53.742421139272814 L31.07284950535429,-53.81870919419751 L30.980356547595274,-53.88884881811775 L30.883292715060236,-53.95251298772903 L30.782110564142958,-54.00940487128404 L30.67728185273861,-54.05925921255927 L30.569295340690676,-54.101843567601996 L30.45865451096694,-54.136959388491256 L30.345875222189477,-54.164442949059946 L30.23148330346362,-54.18416610826176 L30.116012102719942,-54.19603690762391 L30.0,-54.2 L29.88398789728006,-54.19603690762392 L29.76851669653638,-54.18416610826176 L29.654124777810523,-54.164442949059946 L29.54134548903306,-54.136959388491256 L29.430704659309324,-54.101843567601996 L29.32271814726139,-54.05925921255927 L29.217889435857042,-54.00940487128404 L29.116707284939764,-53.95251298772903 L29.019643452404726,-53.88884881811775 L28.92715049464571,-53.81870919419752 L28.839659656528287,-53.742421139272814 L28.75757886072719,-53.66034034347171 L28.681290805802487,-53.57284950535429 L28.61115118188225,-53.48035654759527 L28.54748701227097,-53.383292715060236 L28.49059512871596,-53.282110564142954 L28.440740787440728,-53.17728185273861 L28.398156432398004,-53.06929534069067 L28.36304061150874,-52.95865451096694 L28.33555705094005,-52.84587522218948 L28.315833891738237,-52.73148330346361 L28.303963092376083,-52.616012102719935 L28.3,-52.49999999999999 L28.303963092376083,-52.38398789728006 L28.31583389173824,-52.26851669653637 L28.335557050940054,-52.154124777810516 L28.363040611508744,-52.041345489033056 L28.398156432398007,-51.93070465930932 L28.44074078744073,-51.822718147261384 L28.490595128715967,-51.71788943585704 L28.547487012270974,-51.61670728493976 L28.611151181882253,-51.51964345240472 L28.68129080580249,-51.4271504946457 L28.757578860727193,-51.33965965652828 L28.839659656528294,-51.257578860727186 L28.927150494645716,-51.18129080580248 L29.019643452404733,-51.11115118188224 L29.11670728493977,-51.04748701227096 L29.21788943585705,-50.99059512871596 L29.322718147261398,-50.940740787440724 L29.430704659309335,-50.898156432398004 L29.54134548903307,-50.86304061150874 L29.654124777810534,-50.83555705094005 L29.76851669653639,-50.81583389173824 L29.883987897280072,-50.80396309237608 L30.00000000000001,-50.8 L30.116012102719953,-50.80396309237609 L30.23148330346363,-50.81583389173824 L30.34587522218949,-50.835557050940054 L30.458654510966955,-50.863040611508744 L30.56929534069069,-50.89815643239801 L30.677281852738624,-50.94074078744074 L30.78211056414297,-50.99059512871597 L30.88329271506025,-51.04748701227098 L30.980356547595285,-51.111151181882256 L31.072849505354302,-51.1812908058025 L31.160340343471724,-51.2575788607272 L31.24242113927282,-51.3396596565283 L31.318709194197524,-51.42715049464572 L31.38884881811776,-51.519643452404736 L31.45251298772904,-51.61670728493978 L31.509404871284044,-51.71788943585705 L31.559259212559276,-51.822718147261405 L31.601843567602,-51.93070465930934 L31.636959388491263,-52.04134548903308 L31.664442949059953,-52.15412477781054 L31.684166108261763,-52.2685166965364 L31.696036907623917,-52.38398789728008 L31.7,-52.50000000000002 " />
			<path d="M-24.0,-47.739999999999995 L-24.0,-57.0 " />
			<path d="M-36.0,-47.739999999999995 L-36.0,-57.0 " />
			<path d="M-24.0,-57.0 L-36.0,-57.0 " />
			<path d="M-28.3,-52.5 L-28.303963092376083,-52.61601210271994 L-28.315833891738237,-52.73148330346362 L-28.33555705094005,-52.84587522218948 L-28.36304061150874,-52.958654510966944 L-28.398156432398004,-53.06929534069068 L-28.44074078744073,-53.17728185273861 L-28.490595128715963,-53.28211056414296 L-28.54748701227097,-53.383292715060236 L-28.61115118188225,-53.48035654759527 L-28.681290805802487,-53.57284950535429 L-28.75757886072719,-53.66034034347171 L-28.839659656528287,-53.742421139272814 L-28.92715049464571,-53.81870919419751 L-29.019643452404726,-53.88884881811775 L-29.116707284939764,-53.95251298772903 L-29.217889435857042,-54.00940487128404 L-29.32271814726139,-54.05925921255927 L-29.430704659309324,-54.101843567601996 L-29.54134548903306,-54.136959388491256 L-29.654124777810523,-54.164442949059946 L-29.76851669653638,-54.18416610826176 L-29.883987897280058,-54.19603690762391 L-30.0,-54.2 L-30.11601210271994,-54.19603690762392 L-30.23148330346362,-54.18416610826176 L-30.345875222189477,-54.164442949059946 L-30.45865451096694,-54.136959388491256 L-30.569295340690676,-54.101843567601996 L-30.67728185273861,-54.05925921255927 L-30.782110564142958,-54.00940487128404 L-30.883292715060236,-53.95251298772903 L-30.980356547595274,-53.88884881811775 L-31.07284950535429,-53.81870919419752 L-31.160340343471713,-53.742421139272814 L-31.24242113927281,-53.66034034347171 L-31.318709194197513,-53.57284950535429 L-31.38884881811775,-53.48035654759527 L-31.45251298772903,-53.383292715060236 L-31.50940487128404,-53.282110564142954 L-31.559259212559272,-53.17728185273861 L-31.601843567601996,-53.06929534069067 L-31.63695938849126,-52.95865451096694 L-31.66444294905995,-52.84587522218948 L-31.684166108261763,-52.73148330346361 L-31.696036907623917,-52.616012102719935 L-31.7,-52.49999999999999 L-31.696036907623917,-52.38398789728006 L-31.68416610826176,-52.26851669653637 L-31.664442949059946,-52.154124777810516 L-31.636959388491256,-52.041345489033056 L-31.601843567601993,-51.93070465930932 L-31.55925921255927,-51.822718147261384 L-31.509404871284033,-51.71788943585704 L-31.452512987729026,-51.61670728493976 L-31.388848818117747,-51.51964345240472 L-31.31870919419751,-51.4271504946457 L-31.242421139272807,-51.33965965652828 L-31.160340343471706,-51.257578860727186 L-31.072849505354284,-51.18129080580248 L-30.980356547595267,-51.11115118188224 L-30.88329271506023,-51.04748701227096 L-30.78211056414295,-50.99059512871596 L-30.677281852738602,-50.940740787440724 L-30.569295340690665,-50.898156432398004 L-30.45865451096693,-50.86304061150874 L-30.345875222189466,-50.83555705094005 L-30.23148330346361,-50.81583389173824 L-30.116012102719928,-50.80396309237608 L-29.99999999999999,-50.8 L-29.883987897280047,-50.80396309237609 L-29.76851669653637,-50.81583389173824 L-29.65412477781051,-50.835557050940054 L-29.541345489033045,-50.863040611508744 L-29.43070465930931,-50.89815643239801 L-29.322718147261376,-50.94074078744074 L-29.21788943585703,-50.99059512871597 L-29.11670728493975,-51.04748701227098 L-29.019643452404715,-51.111151181882256 L-28.927150494645698,-51.1812908058025 L-28.839659656528276,-51.2575788607272 L-28.75757886072718,-51.3396596565283 L-28.681290805802476,-51.42715049464572 L-28.61115118188224,-51.519643452404736 L-28.54748701227096,-51.61670728493978 L-28.490595128715956,-51.71788943585705 L-28.440740787440724,-51.822718147261405 L-28.398156432398,-51.93070465930934 L-28.363040611508737,-52.04134548903308 L-28.335557050940047,-52.15412477781054 L-28.315833891738237,-52.2685166965364 L-28.303963092376083,-52.38398789728008 L-28.3,-52.50000000000002 " />
			<path d="M-37.1,0.8077747210701709 L-37.1,-0.8077747210701718 " />
			<path d="M-32.9,0.8077747210701718 L-32.9,-0.8077747210701718 " />
			<path d="M-33.35,0.0 L-33.35393150070294,-0.11383538826713611 L-33.36570726742052,-0.22712829906882753 L-33.38527118326167,-0.3393388400917953 L-33.41253001725806,-0.4499322770076647 L-33.44735386865208,-0.5583815817255563 L-33.489576785933146,-0.6641699439209464 L-33.538997557672204,-0.7667932338722181 L-33.59538067138582,-0.8657624048683632 L-33.65845743586042,-0.9606058237392716 L-33.727927261588285,-1.050871518402567 L-33.80345909321343,-1.1361293317164067 L-33.88469298716115,-1.2159729713741554 L-33.97124182693309,-1.2900219460722488 L-34.06269316789359,-1.3579233787245326 L-34.158611202756276,-1.4193536880822757 L-34.258538838404185,-1.4740201307461789 L-34.36199987414666,-1.5216621962219867 L-34.46850127103249,-1.5620528483716296 L-34.577535501405045,-1.5949996073438122 L-34.68858296750269,-1.6203454668281598 L-34.801114477578714,-1.6379696422617889 L-34.91459376774105,-1.6477881464227526 L-35.028480057493894,-1.6497541896674013 L-35.14223062680302,-1.6438584029043435 L-35.25530340240397,-1.6301288822424316 L-35.36715954102792,-1.6086310551000087 L-35.477265997235335,-1.579467368413466 L-35.58509806362019,-1.5427768004309341 L-35.690141871279685,-1.4987341984176434 L-35.79189683863365,-1.4475494454290787 L-35.88987805692368,-1.3894664601226385 L-35.983618601024226,-1.324762034374155 L-36.072671754553426,-1.2537445142385542 L-36.15661313868015,-1.1767523305404828 L-36.23504273448232,-1.0941523860973108 L-36.3075867892193,-1.0063383072601189 L-36.37389959743389,-0.913728568104878 L-36.43366514839626,-0.8167644962129076 L-36.48659863203899,-0.7159081695439691 L-36.532447796206746,-0.6116402144243593 L-36.57099414875268,-0.5044575151435902 L-36.602053998752986,-0.394870846074468 L-36.62547933187784,-0.283402437600603 L-36.641158515747065,-0.1705834874508082 L-36.649016831909265,-0.05695162930001573 L-36.649016831909265,0.05695162930002119 L-36.641158515747065,0.17058348745081364 L-36.62547933187784,0.2834024376006084 L-36.602053998752986,0.3948708460744733 L-36.570994148752675,0.5044575151435954 L-36.532447796206746,0.6116402144243644 L-36.48659863203899,0.715908169543974 L-36.43366514839626,0.8167644962129124 L-36.37389959743389,0.9137285681048826 L-36.3075867892193,1.006338307260123 L-36.23504273448231,1.094152386097315 L-36.15661313868014,1.1767523305404866 L-36.072671754553426,1.2537445142385573 L-35.98361860102422,1.3247620343741582 L-35.88987805692368,1.3894664601226412 L-35.79189683863365,1.447549445429081 L-35.69014187127968,1.4987341984176454 L-35.58509806362018,1.5427768004309357 L-35.477265997235335,1.579467368413467 L-35.36715954102792,1.6086310551000098 L-35.25530340240396,1.6301288822424322 L-35.14223062680302,1.643858402904344 L-35.02848005749389,1.6497541896674015 L-34.91459376774105,1.6477881464227524 L-34.801114477578714,1.6379696422617884 L-34.68858296750268,1.6203454668281592 L-34.577535501405045,1.5949996073438109 L-34.46850127103249,1.562052848371628 L-34.361999874146655,1.521662196221985 L-34.25853883840418,1.4740201307461767 L-34.15861120275627,1.4193536880822735 L-34.06269316789359,1.35792337872453 L-33.97124182693309,1.2900219460722455 L-33.88469298716115,1.2159729713741518 L-33.80345909321343,1.136129331716403 L-33.72792726158828,1.0508715184025628 L-33.65845743586042,0.9606058237392668 L-33.59538067138582,0.8657624048683581 L-33.538997557672204,0.7667932338722125 L-33.489576785933146,0.6641699439209406 L-33.44735386865208,0.5583815817255502 L-33.41253001725806,0.4499322770076584 L-33.38527118326167,0.3393388400917889 L-33.36570726742052,0.2271282990688209 L-33.35393150070294,0.11383538826712931 L-33.35,-6.923338518807407e-15 " />
			<path d="M58.0,56.5 L20.4,56.5 " />
			<path d="M-20.4,56.5 L-55.2,56.5 " />
			<path d="M-56.800000001933995,56.5 L-58.0,56.5 " />
			<path d="M20.0,56.5 L-20.0,56.5 " />

       </g>
    </g>
    
</svg>
